<?xml version="1.0" encoding="utf-8"?>
<!-- Generator: Adobe Illustrator 19.0.0, SVG Export Plug-In . SVG Version: 6.00 Build 0)  -->
<svg version="1.1" id="tshirt" xmlns="http://www.w3.org/2000/svg" xmlns:xlink="http://www.w3.org/1999/xlink" x="0px" y="0px"
	 viewBox="0 0 120 120" style="enable-background:new 0 0 120 120;" xml:space="preserve">
<style type="text/css">
	.st0{fill:#789DCF;}
	.st1{fill:#FFFFFF;}
	.st2{fill:#EBF6F3;}
</style>
<path id="XMLID_148_" class="st0" d="M108.9,11.5H75.5c-0.7,0-1.2,0.5-1.2,1.2c0,7.7-6.2,13.9-13.9,13.9c-7.7,0-13.9-6.2-13.9-13.9
	c0-0.6-0.5-1.2-1.2-1.2H11.9c-0.7,0-1.2,0.5-1.2,1.2v46.9c0,0.7,0.5,1.2,1.2,1.2h13.9v49c0,0.6,0.5,1.2,1.2,1.2h77
	c0.7,0,1.2-0.5,1.2-1.2V93c0-0.7-0.5-1.2-1.2-1.2H95V60.7h13.9c0.7,0,1.2-0.5,1.2-1.2V12.7C110.1,12,109.6,11.5,108.9,11.5z
	 M44.2,13.8l0,0.5c0.8,8.3,7.8,14.6,16.2,14.6c8.4,0,15.3-6.3,16.1-14.6l0-0.5h4.3l0,0.5C80,25,71,33.3,60.4,33.3
	c-0.6,0-1.1,0-1.7-0.1c-10.1-0.8-18-8.7-18.8-18.8l0-0.5H44.2z M25.8,58.4H13V54h12.7V58.4z M102.7,94.2v14.4H28.1V62.4l31.5,31.5
	c0.2,0.2,0.5,0.3,0.8,0.3s0.6-0.1,0.8-0.3l31.5-31.5v41.9H95v-10H102.7z M73.9,57.7l0.3,0.2c1.4,0.8,3,1.1,4.5,1.1
	c3.5,0,6.7-1.9,8.4-5c1.5-2.8,1.5-6.2,0-9.1L87,44.6l5.7-5.7V59L60.4,91.3L28.1,59V38.9l31.5,31.5c0.2,0.2,0.5,0.4,0.8,0.4
	s0.6-0.1,0.8-0.4L73.9,57.7z M71.6,49.5c0-4,3.2-7.2,7.2-7.2c4,0,7.2,3.2,7.2,7.2c0,4-3.2,7.2-7.2,7.2
	C74.8,56.7,71.6,53.5,71.6,49.5z M107.8,58.4H95V54h12.7V58.4z M107.8,51.7H95V29.9h-2.3v5.7l-7.1,7.1l-0.3-0.3
	c-1.8-1.6-4-2.5-6.4-2.5c-2.7,0-5.2,1.1-7,3.1c-3.3,3.7-3.3,9.2,0,12.8l0.3,0.3L60.4,67.9L28.1,35.6v-5.7h-2.3v21.8H13V13.8h24.5
	l0,0.5c0.8,12,10.8,21.3,22.8,21.3c0.5,0,1.1,0,1.6-0.1c11.3-0.8,20.5-9.9,21.3-21.3l0-0.5h24.5V51.7z"/>
<path id="XMLID_139_" class="st1" d="M86,49.5c0,4-3.2,7.2-7.2,7.2c-4,0-7.2-3.2-7.2-7.2c0-4,3.2-7.2,7.2-7.2
	C82.8,42.3,86,45.5,86,49.5z"/>
<path id="XMLID_138_" class="st2" d="M80.9,13.8l0,0.5C80,25,71,33.3,60.4,33.3c-0.6,0-1.1,0-1.7-0.1c-10.1-0.8-18-8.7-18.8-18.8
	l0-0.5h4.3l0,0.5c0.8,8.3,7.8,14.6,16.2,14.6c8.4,0,15.3-6.3,16.1-14.6l0-0.5H80.9z"/>
<rect id="XMLID_137_" x="95" y="54" class="st2" width="12.7" height="4.3"/>
<rect id="XMLID_136_" x="13" y="54" class="st2" width="12.7" height="4.3"/>
<path id="XMLID_135_" class="st2" d="M92.7,38.9V59L60.4,91.3L28.1,59V38.9l31.5,31.5c0.2,0.2,0.5,0.4,0.8,0.4s0.6-0.1,0.8-0.4
	l12.7-12.7l0.3,0.2c1.4,0.8,3,1.1,4.5,1.1c3.5,0,6.7-1.9,8.4-5c1.5-2.8,1.5-6.2,0-9.1L87,44.6L92.7,38.9z"/>
<path id="XMLID_134_" class="st1" d="M102.7,94.2v14.4H28.1V62.4l31.5,31.5c0.2,0.2,0.5,0.3,0.8,0.3s0.6-0.1,0.8-0.3l31.5-31.5v41.9
	H95v-10H102.7z"/>
<path id="XMLID_133_" class="st1" d="M107.8,13.8v37.8H95V29.9h-2.3v5.7l-7.1,7.1l-0.3-0.3c-1.8-1.6-4-2.5-6.4-2.5
	c-2.7,0-5.2,1.1-7,3.1c-3.3,3.7-3.3,9.2,0,12.8l0.3,0.3L60.4,67.9L28.1,35.6v-5.7h-2.3v21.8H13V13.8h24.5l0,0.5
	c0.8,12,10.8,21.3,22.8,21.3c0.5,0,1.1,0,1.6-0.1c11.3-0.8,20.5-9.9,21.3-21.3l0-0.5H107.8z"/>
<path id="XMLID_128_" class="st0" d="M80.4,44.5l-2.9,5.1L75.9,47l-3.2,5.4h12.2L80.4,44.5z M76.4,51.4h-2l1.5-2.4l1,1.6L76.4,51.4z
	 M80.4,46.5l2.8,4.9l-5.6,0L80.4,46.5z"/>
</svg>
