<?xml version="1.0" encoding="UTF-8" standalone="no"?>
<svg
   xmlns:dc="http://purl.org/dc/elements/1.1/"
   xmlns:cc="http://creativecommons.org/ns#"
   xmlns:rdf="http://www.w3.org/1999/02/22-rdf-syntax-ns#"
   xmlns:svg="http://www.w3.org/2000/svg"
   xmlns="http://www.w3.org/2000/svg"
   viewBox="0 0 160 160"
   height="160"
   width="160"
   xml:space="preserve"
   id="svg2"
   version="1.1"><metadata
     id="metadata8"><rdf:RDF><cc:Work
         rdf:about=""><dc:format>image/svg+xml</dc:format><dc:type
           rdf:resource="http://purl.org/dc/dcmitype/StillImage" /></cc:Work></rdf:RDF></metadata><defs
     id="defs6"><clipPath
       id="clipPath18"
       clipPathUnits="userSpaceOnUse"><path
         id="path16"
         d="M 0,120 H 120 V 0 H 0 Z" /></clipPath></defs><g
     transform="matrix(1.3333333,0,0,-1.3333333,0,160)"
     id="g10"><g
       id="g12"><g
         clip-path="url(#clipPath18)"
         id="g14"><g
           transform="translate(84.0004,31.4369)"
           id="g20"><path
             id="path22"
             style="fill:#ffffff;fill-opacity:1;fill-rule:nonzero;stroke:none"
             d="m 0,0 v 72.465 c 0,0.972 -0.795,1.768 -1.767,1.768 H -74.233 C -75.205,74.233 -76,73.437 -76,72.465 V 0 c 0,-0.972 0.795,-1.767 1.767,-1.767 H -1.767 C -0.795,-1.767 0,-0.972 0,0" /></g><g
           transform="translate(84.0004,31.4369)"
           id="g24"><path
             id="path26"
             style="fill:none;stroke:#779dcf;stroke-width:2.65100002;stroke-linecap:butt;stroke-linejoin:miter;stroke-miterlimit:10;stroke-dasharray:none;stroke-opacity:1"
             d="m 0,0 v 72.465 c 0,0.972 -0.795,1.768 -1.767,1.768 H -74.233 C -75.205,74.233 -76,73.437 -76,72.465 V 0 c 0,-0.972 0.795,-1.767 1.767,-1.767 H -1.767 C -0.795,-1.767 0,-0.972 0,0 Z" /></g><g
           transform="translate(117.1663,69.576)"
           id="g28"><path
             id="path30"
             style="fill:#ffffff;fill-opacity:1;fill-rule:nonzero;stroke:none"
             d="m 0,0 v 47.516 c 0,0.637 -0.522,1.158 -1.159,1.158 h -47.515 c -0.638,0 -1.159,-0.521 -1.159,-1.158 V 0 c 0,-0.637 0.521,-1.159 1.159,-1.159 H -1.159 C -0.522,-1.159 0,-0.637 0,0" /></g><g
           transform="translate(117.1663,69.576)"
           id="g32"><path
             id="path34"
             style="fill:none;stroke:#779dcf;stroke-width:3;stroke-linecap:butt;stroke-linejoin:miter;stroke-miterlimit:10;stroke-dasharray:none;stroke-opacity:1"
             d="m 0,0 v 47.516 c 0,0.637 -0.522,1.158 -1.159,1.158 h -47.515 c -0.638,0 -1.159,-0.521 -1.159,-1.158 V 0 c 0,-0.637 0.521,-1.159 1.159,-1.159 H -1.159 C -0.522,-1.159 0,-0.637 0,0 Z" /></g><g
           transform="translate(49.9579,56.5887)"
           id="g36"><path
             id="path38"
             style="fill:#779dcf;fill-opacity:1;fill-rule:nonzero;stroke:none"
             d="m 0,0 c -1.099,-0.458 -2.295,-0.698 -3.485,-0.698 -1.19,0 -2.385,0.24 -3.485,0.698 l 0.374,2.152 c 1.036,-0.042 2.074,-0.063 3.111,-0.063 1.037,0 2.075,0.021 3.112,0.064 z m -10.974,15.603 c 1.377,0 2.497,-1.12 2.497,-2.497 0,-1.377 -1.12,-2.497 -2.497,-2.497 -1.377,0 -2.497,1.12 -2.497,2.497 0,1.377 1.12,2.497 2.497,2.497 m 15.008,2.949 c -1.377,0 -2.497,1.12 -2.497,2.497 0,1.377 1.12,2.497 2.497,2.497 1.377,0 2.497,-1.12 2.497,-2.497 0,-1.377 -1.12,-2.497 -2.497,-2.497 m -13.451,8.271 c -0.682,0.083 -1.369,0.181 -2.043,0.293 -0.631,0.104 -1.122,0.442 -1.281,0.882 -0.109,0.298 -0.042,0.6 0.193,0.873 0.666,0.775 1.342,1.571 2.016,2.377 0.631,-1.184 1.877,-1.992 3.309,-1.992 2.065,0 3.746,1.68 3.746,3.745 0,1.704 -1.144,3.145 -2.704,3.597 0.4,0.507 0.798,1.016 1.191,1.522 0.308,0.397 0.871,0.634 1.505,0.634 0.635,0 1.197,-0.237 1.505,-0.634 C 0.435,35.007 2.978,31.895 5.578,28.872 5.813,28.598 5.88,28.296 5.772,27.998 5.612,27.558 5.121,27.22 4.49,27.116 3.817,27.004 3.13,26.905 2.448,26.822 -1.489,26.343 -5.481,26.343 -9.417,26.823 m 2.194,8.675 c 1.377,0 2.498,-1.12 2.498,-2.497 0,-1.377 -1.121,-2.497 -2.498,-2.497 -1.377,0 -2.497,1.12 -2.497,2.497 0,1.377 1.12,2.497 2.497,2.497 M 11.589,8.393 c -0.47,0.546 -0.944,1.1 -1.407,1.645 C 9.958,10.301 9.564,10.333 9.302,10.11 9.039,9.887 9.007,9.493 9.23,9.23 9.695,8.683 10.17,8.127 10.642,7.578 11.078,7.071 11.205,6.48 10.999,5.912 10.713,5.127 9.862,4.527 8.777,4.348 c -8.136,-1.347 -16.388,-1.347 -24.525,0 -1.084,0.179 -1.935,0.779 -2.22,1.564 -0.206,0.567 -0.08,1.159 0.356,1.666 1.109,1.29 2.209,2.587 3.281,3.869 0.613,-1.235 1.887,-2.087 3.357,-2.087 2.065,0 3.746,1.681 3.746,3.746 0,0.156 -0.011,0.31 -0.03,0.461 1.258,-0.073 2.517,-0.11 3.777,-0.11 2.912,0 5.821,0.195 8.695,0.584 0.814,-0.994 1.646,-1.997 2.477,-2.988 0.123,-0.147 0.3,-0.223 0.479,-0.223 0.141,0 0.284,0.048 0.4,0.146 0.265,0.222 0.299,0.615 0.078,0.88 -0.666,0.794 -1.334,1.596 -1.992,2.395 0.15,0.024 0.299,0.048 0.446,0.073 1.33,0.22 2.395,1.014 2.779,2.071 0.318,0.878 0.132,1.81 -0.512,2.559 -0.561,0.652 -1.084,1.266 -1.597,1.871 0.005,0.075 0.008,0.149 0.008,0.224 0,1.909 -1.437,3.489 -3.286,3.716 -0.273,0.335 -0.535,0.655 -0.787,0.966 0.331,0.048 0.66,0.099 0.986,0.153 1.076,0.178 1.939,0.824 2.252,1.687 0.264,0.727 0.111,1.497 -0.42,2.115 -2.587,3.007 -5.117,6.103 -7.518,9.199 -0.543,0.7 -1.474,1.117 -2.492,1.117 -1.017,0 -1.948,-0.417 -2.491,-1.117 -0.561,-0.722 -1.133,-1.45 -1.702,-2.167 -1.851,-0.225 -3.29,-1.806 -3.29,-3.717 0,-0.105 0.005,-0.208 0.014,-0.311 -0.848,-1.019 -1.701,-2.029 -2.541,-3.004 -0.531,-0.618 -0.684,-1.388 -0.42,-2.115 0.314,-0.863 1.176,-1.509 2.251,-1.687 0.327,-0.054 0.657,-0.105 0.987,-0.153 -0.796,-0.981 -1.605,-1.966 -2.413,-2.937 -0.221,-0.265 -0.184,-0.659 0.081,-0.88 0.116,-0.097 0.258,-0.144 0.399,-0.144 0.179,0 0.356,0.077 0.48,0.225 0.976,1.173 1.953,2.366 2.907,3.548 1.905,-0.218 3.822,-0.329 5.738,-0.329 1.916,0 3.833,0.111 5.738,0.329 0.235,-0.292 0.478,-0.591 0.729,-0.9 -1.555,-0.456 -2.694,-1.894 -2.694,-3.594 0,-2.066 1.681,-3.746 3.746,-3.746 1.459,0 2.725,0.839 3.343,2.059 C 7.715,18.965 8.06,18.56 8.422,18.14 8.774,17.731 8.872,17.275 8.707,16.821 8.477,16.187 7.784,15.702 6.898,15.555 6.41,15.474 5.902,15.397 5.388,15.325 1.086,14.719 -3.301,14.558 -7.657,14.844 c -0.627,1.192 -1.879,2.008 -3.317,2.008 -1.134,0 -2.151,-0.507 -2.838,-1.306 -0.019,0.003 -0.037,0.006 -0.055,0.009 -0.886,0.147 -1.58,0.632 -1.81,1.266 -0.164,0.454 -0.066,0.91 0.286,1.319 0.478,0.556 0.959,1.12 1.431,1.676 0.222,0.263 0.19,0.657 -0.073,0.88 -0.263,0.223 -0.657,0.19 -0.88,-0.073 -0.47,-0.553 -0.949,-1.115 -1.425,-1.669 -0.644,-0.749 -0.831,-1.681 -0.513,-2.559 0.343,-0.945 1.232,-1.679 2.367,-1.981 -0.152,-0.408 -0.236,-0.848 -0.236,-1.308 0,-0.057 0.002,-0.114 0.004,-0.171 -1.247,-1.499 -2.538,-3.026 -3.842,-4.543 -0.733,-0.851 -0.946,-1.911 -0.584,-2.906 0.439,-1.209 1.662,-2.118 3.19,-2.37 2.691,-0.446 5.393,-0.745 8.099,-0.901 l -0.43,-2.48 c -0.048,-0.275 0.093,-0.548 0.345,-0.669 1.381,-0.663 2.921,-1.013 4.453,-1.013 1.532,0 3.072,0.35 4.453,1.013 0.252,0.121 0.393,0.394 0.345,0.669 l -0.43,2.48 c 2.706,0.156 5.409,0.455 8.099,0.901 1.528,0.252 2.751,1.161 3.191,2.37 0.361,0.995 0.148,2.055 -0.584,2.907" /></g><g
           transform="translate(66.6695,3.8268)"
           id="g40"><path
             id="path42"
             style="fill:#ffffff;fill-opacity:1;fill-rule:nonzero;stroke:none"
             d="m 0,0 v 47.516 c 0,0.637 -0.521,1.158 -1.159,1.158 h -47.515 c -0.638,0 -1.159,-0.521 -1.159,-1.158 V 0 c 0,-0.637 0.521,-1.159 1.159,-1.159 H -1.159 C -0.521,-1.159 0,-0.637 0,0" /></g><g
           transform="translate(66.6695,3.8268)"
           id="g44"><path
             id="path46"
             style="fill:none;stroke:#779dcf;stroke-width:3;stroke-linecap:butt;stroke-linejoin:miter;stroke-miterlimit:10;stroke-dasharray:none;stroke-opacity:1"
             d="m 0,0 v 47.516 c 0,0.637 -0.521,1.158 -1.159,1.158 h -47.515 c -0.638,0 -1.159,-0.521 -1.159,-1.158 V 0 c 0,-0.637 0.521,-1.159 1.159,-1.159 H -1.159 C -0.521,-1.159 0,-0.637 0,0 Z" /></g><g
           transform="translate(106.4719,85.7331)"
           id="g48"><path
             id="path50"
             style="fill:#779dcf;fill-opacity:1;fill-rule:nonzero;stroke:none"
             d="M 0,0 C -0.17,-0.297 -0.551,-0.401 -0.848,-0.23 L -1.821,0.327 -1.203,1.405 -0.23,0.848 C 0.067,0.678 0.17,0.297 0,0 M -7.973,6.267 -1.849,2.602 C -1.891,2.564 -3.163,0.348 -3.175,0.301 l -4.25,2.264 c -0.007,0.003 -0.014,0.006 -0.02,0.009 z m -8.931,3.334 c 0.821,-0.682 1.862,-1.066 2.961,-1.066 1.098,0 2.14,0.385 2.961,1.066 V 7.877 h -5.922 z m 0.621,4.198 h 4.68 c 0.343,0 0.621,-0.279 0.621,-0.621 v -1.952 c 0,0 0,0 0,-0.001 -0.659,-0.998 -1.766,-1.594 -2.961,-1.594 -1.196,0 -2.302,0.597 -2.961,1.596 v 1.951 c 0,0.342 0.279,0.621 0.621,0.621 M -24.711,0.301 c -0.012,0.047 -1.284,2.263 -1.326,2.301 l 6.124,3.665 -0.527,-3.692 z m -2.326,-0.531 c -0.298,-0.171 -0.678,-0.067 -0.849,0.23 -0.17,0.297 -0.067,0.678 0.231,0.848 l 0.972,0.557 0.618,-1.078 z M 1.119,0.759 C 0.999,1.202 0.713,1.572 0.315,1.8 l -0.973,0.557 0.079,0.137 c 0.148,0.259 0.062,0.59 -0.195,0.743 L -8.13,7.639 v 6.709 c 0,2.882 -2.345,5.228 -5.228,5.228 h -1.17 c -2.883,0 -5.228,-2.346 -5.228,-5.228 v -1.17 c 0,-0.303 0.246,-0.549 0.549,-0.549 0.303,0 0.548,0.246 0.548,0.549 v 1.17 c 0,2.278 1.853,4.131 4.131,4.131 h 1.17 c 2.278,0 4.131,-1.853 4.131,-4.131 V 7.877 h -0.658 v 5.301 c 0,0.947 -0.771,1.718 -1.718,1.718 h -4.68 c -0.947,0 -1.718,-0.771 -1.718,-1.718 V 7.877 h -0.658 v 2.997 c 0,0.303 -0.245,0.549 -0.548,0.549 -0.303,0 -0.549,-0.246 -0.549,-0.549 V 7.639 L -27.112,3.237 C -27.369,3.084 -27.455,2.753 -27.306,2.494 L -27.228,2.357 -28.201,1.8 c -0.811,-0.465 -1.103,-1.532 -0.636,-2.345 0.317,-0.554 0.897,-0.864 1.494,-0.864 0.289,0 0.582,0.073 0.851,0.227 l 0.972,0.557 0.064,-0.111 c 0.145,-0.254 0.475,-0.349 0.734,-0.212 l 4.089,2.178 -1.457,-10.203 c -0.047,-0.325 0.214,-0.626 0.543,-0.626 h 15.208 c 0.329,0 0.59,0.301 0.543,0.626 l -0.642,4.499 c -0.043,0.3 -0.322,0.508 -0.621,0.466 -0.3,-0.043 -0.508,-0.321 -0.465,-0.621 l 0.553,-3.873 h -13.944 l 2.183,15.282 h 9.578 l 1.201,-8.409 c 0.043,-0.3 0.321,-0.508 0.621,-0.466 0.3,0.043 0.508,0.321 0.465,0.621 l -0.386,2.704 4.09,-2.178 c 0.258,-0.137 0.588,-0.042 0.733,0.212 l 0.064,0.111 0.973,-0.557 c 0.812,-0.466 1.88,-0.174 2.345,0.637 0.228,0.398 0.287,0.861 0.167,1.304" /></g><g
           transform="translate(92.5291,82.5688)"
           id="g52"><path
             id="path54"
             style="fill:#779dcf;fill-opacity:1;fill-rule:nonzero;stroke:none"
             d="m 0,0 c 0.303,0 0.548,0.245 0.548,0.548 v 4.717 h 1.207 c 0.303,0 0.548,0.245 0.548,0.548 0,0.303 -0.245,0.548 -0.548,0.548 H 0.548 V 7.568 C 0.548,7.871 0.303,8.116 0,8.116 -0.303,8.116 -0.548,7.871 -0.548,7.568 V 6.361 h -1.207 c -0.303,0 -0.548,-0.245 -0.548,-0.548 0,-0.303 0.245,-0.548 0.548,-0.548 h 1.207 V 0.548 C -0.548,0.245 -0.303,0 0,0" /></g><g
           transform="translate(99.2198,93.2078)"
           id="g56"><path
             id="path58"
             style="fill:#779dcf;fill-opacity:1;fill-rule:nonzero;stroke:none"
             d="m 0,0 c 0.242,-0.182 0.586,-0.133 0.768,0.109 1.219,1.624 1.864,3.558 1.864,5.594 0,5.141 -4.182,9.323 -9.323,9.323 -5.14,0 -9.322,-4.182 -9.322,-9.323 0,-2.036 0.644,-3.971 1.864,-5.595 0.108,-0.143 0.273,-0.219 0.439,-0.219 0.115,0 0.23,0.036 0.329,0.11 0.242,0.182 0.291,0.526 0.109,0.768 -1.076,1.432 -1.645,3.139 -1.645,4.936 0,4.536 3.691,8.226 8.226,8.226 4.536,0 8.226,-3.69 8.226,-8.226 C 1.535,3.907 0.967,2.2 -0.109,0.768 -0.291,0.526 -0.242,0.182 0,0" /></g><g
           transform="translate(92.5291,108.8915)"
           id="g60"><path
             id="path62"
             style="fill:#779dcf;fill-opacity:1;fill-rule:nonzero;stroke:none"
             d="m 0,0 c 0.303,0 0.548,0.245 0.548,0.548 v 1.17 C 0.548,2.021 0.303,2.267 0,2.267 -0.303,2.267 -0.548,2.021 -0.548,1.718 V 0.548 C -0.548,0.245 -0.303,0 0,0" /></g><g
           transform="translate(86.4971,107.6767)"
           id="g64"><path
             id="path66"
             style="fill:#779dcf;fill-opacity:1;fill-rule:nonzero;stroke:none"
             d="M 0,0 C 0.161,-0.279 0.54,-0.359 0.8,-0.167 1.022,-0.004 1.088,0.31 0.95,0.548 L 0.365,1.562 C 0.214,1.824 -0.122,1.914 -0.384,1.762 -0.646,1.611 -0.736,1.275 -0.585,1.013 Z" /></g><g
           transform="translate(81.6167,103.993)"
           id="g68"><path
             id="path70"
             style="fill:#779dcf;fill-opacity:1;fill-rule:nonzero;stroke:none"
             d="M 0,0 1.013,-0.585 C 1.293,-0.746 1.66,-0.625 1.79,-0.33 1.901,-0.077 1.8,0.227 1.562,0.365 L 0.548,0.95 C 0.286,1.101 -0.049,1.012 -0.201,0.749 -0.352,0.487 -0.262,0.151 0,0" /></g><g
           transform="translate(80.2451,97.7775)"
           id="g72"><path
             id="path74"
             style="fill:#779dcf;fill-opacity:1;fill-rule:nonzero;stroke:none"
             d="m 0,0 h 1.17 c 0.303,0 0.548,0.245 0.548,0.548 0,0.303 -0.245,0.549 -0.548,0.549 H 0 C -0.303,1.097 -0.548,0.851 -0.548,0.548 -0.548,0.245 -0.303,0 0,0" /></g><g
           transform="translate(82.6298,93.2438)"
           id="g76"><path
             id="path78"
             style="fill:#779dcf;fill-opacity:1;fill-rule:nonzero;stroke:none"
             d="m 0,0 -1.013,-0.585 c -0.239,-0.138 -0.339,-0.442 -0.228,-0.695 0.129,-0.295 0.497,-0.416 0.776,-0.255 l 1.013,0.585 c 0.263,0.152 0.353,0.487 0.201,0.749 C 0.598,0.062 0.262,0.151 0,0" /></g><g
           transform="translate(101.8799,92.2939)"
           id="g80"><path
             id="path82"
             style="fill:#779dcf;fill-opacity:1;fill-rule:nonzero;stroke:none"
             d="M 0,0 1.013,-0.585 C 1.293,-0.746 1.66,-0.625 1.79,-0.33 1.901,-0.077 1.8,0.227 1.562,0.365 L 0.548,0.95 C 0.286,1.101 -0.049,1.012 -0.201,0.749 -0.352,0.487 -0.262,0.151 0,0" /></g><g
           transform="translate(103.0947,98.3259)"
           id="g84"><path
             id="path86"
             style="fill:#779dcf;fill-opacity:1;fill-rule:nonzero;stroke:none"
             d="m 0,0 c 0,-0.303 0.245,-0.548 0.548,-0.548 h 1.17 c 0.303,0 0.549,0.245 0.549,0.548 0,0.303 -0.246,0.548 -0.549,0.548 H 0.548 C 0.246,0.548 0,0.303 0,0" /></g><g
           transform="translate(102.1546,103.3344)"
           id="g88"><path
             id="path90"
             style="fill:#779dcf;fill-opacity:1;fill-rule:nonzero;stroke:none"
             d="M 0,0 C 0.093,0 0.187,0.024 0.274,0.074 L 1.287,0.659 C 1.549,0.81 1.639,1.145 1.488,1.408 1.336,1.67 1.001,1.76 0.738,1.608 L -0.275,1.023 C -0.479,0.906 -0.586,0.663 -0.537,0.433 -0.483,0.183 -0.255,0 0,0" /></g><g
           transform="translate(97.8119,107.476)"
           id="g92"><path
             id="path94"
             style="fill:#779dcf;fill-opacity:1;fill-rule:nonzero;stroke:none"
             d="M 0,0 C 0.259,-0.149 0.6,-0.058 0.749,0.201 L 1.334,1.214 C 1.485,1.476 1.396,1.812 1.133,1.963 0.871,2.114 0.536,2.025 0.384,1.762 L -0.201,0.749 C -0.352,0.487 -0.262,0.151 0,0" /></g><g
           transform="translate(45.4438,32.6729)"
           id="g96"><path
             id="path98"
             style="fill:#779dcf;fill-opacity:1;fill-rule:nonzero;stroke:none"
             d="M 0,0 -0.41,-3.088 2.458,-4.033 C 2.804,-4.128 2.962,-4.506 2.867,-4.821 2.804,-5.01 2.678,-5.136 2.521,-5.199 l -2.868,-1.198 0.599,-2.962 c 0.063,-0.346 -0.157,-0.661 -0.504,-0.756 -0.189,-0.031 -0.378,0 -0.504,0.126 l -2.458,1.891 -2.3,-2.048 c -0.252,-0.221 -0.662,-0.221 -0.883,0.063 -0.126,0.157 -0.189,0.315 -0.157,0.504 l 0.409,3.088 -2.867,0.945 c -0.347,0.095 -0.504,0.473 -0.41,0.788 0.063,0.189 0.189,0.315 0.347,0.378 l 2.867,1.197 -0.598,2.962 c -0.063,0.347 0.157,0.662 0.504,0.757 0.189,0.031 0.378,0 0.504,-0.126 l 2.458,-1.891 2.269,2.017 c 0.252,0.22 0.661,0.22 0.882,-0.063 C -0.032,0.347 0.032,0.189 0,0 m -10.777,2.552 c -0.063,0.347 0.158,0.662 0.505,0.757 0.346,0.063 0.661,-0.158 0.756,-0.505 l 0.725,-3.655 1.355,-0.788 c 0.315,-0.189 0.409,-0.567 0.22,-0.85 -0.189,-0.315 -0.567,-0.41 -0.851,-0.221 l -1.386,0.756 -3.529,-1.197 c -0.347,-0.126 -0.694,0.063 -0.82,0.41 -0.126,0.346 0.063,0.693 0.41,0.819 l 2.489,0.851 -2.331,1.355 -3.53,-1.198 c -0.346,-0.126 -0.693,0.063 -0.819,0.41 -0.126,0.346 0.063,0.693 0.41,0.819 l 2.489,0.851 -2.332,1.355 c -0.315,0.189 -0.409,0.567 -0.22,0.851 0.189,0.315 0.567,0.409 0.851,0.22 l 2.331,-1.323 -0.504,2.584 c -0.063,0.346 0.158,0.661 0.504,0.756 0.347,0.063 0.662,-0.158 0.757,-0.504 l 0.724,-3.656 2.332,-1.354 z m -2.615,-10.178 c -0.347,0.127 -0.504,0.473 -0.41,0.82 0.126,0.346 0.473,0.504 0.82,0.409 l 3.529,-1.229 1.355,0.788 c 0.315,0.189 0.693,0.063 0.851,-0.22 0.189,-0.315 0.063,-0.694 -0.221,-0.851 l -1.355,-0.788 -0.725,-3.655 c -0.063,-0.347 -0.409,-0.567 -0.756,-0.504 -0.347,0.063 -0.567,0.409 -0.504,0.756 l 0.504,2.584 -2.332,-1.355 -0.693,-3.687 c -0.063,-0.346 -0.41,-0.567 -0.756,-0.504 -0.347,0.063 -0.567,0.41 -0.504,0.756 l 0.504,2.584 -2.332,-1.323 c -0.315,-0.189 -0.693,-0.063 -0.851,0.22 -0.189,0.315 -0.063,0.693 0.221,0.851 l 2.332,1.355 -2.49,0.851 c -0.346,0.126 -0.504,0.472 -0.409,0.788 0.126,0.346 0.472,0.504 0.819,0.409 l 3.529,-1.197 2.332,1.355 z m 7.5,-7.341 c -0.253,-0.221 -0.662,-0.19 -0.883,0.063 -0.22,0.252 -0.189,0.661 0.063,0.882 l 2.805,2.458 v 1.544 c 0,0.346 0.283,0.63 0.63,0.63 0.347,0 0.63,-0.284 0.63,-0.63 v -1.544 l 2.805,-2.458 c 0.252,-0.221 0.283,-0.63 0.063,-0.882 C 0,-15.157 -0.41,-15.188 -0.662,-14.967 l -1.985,1.733 v -2.71 l 2.805,-2.458 c 0.252,-0.221 0.283,-0.63 0.063,-0.882 C 0,-19.536 -0.41,-19.568 -0.662,-19.347 l -1.985,1.733 v -2.679 c 0,-0.346 -0.283,-0.63 -0.63,-0.63 -0.347,0 -0.63,0.284 -0.63,0.63 v 2.679 l -1.985,-1.733 c -0.253,-0.221 -0.662,-0.189 -0.883,0.063 -0.22,0.252 -0.189,0.661 0.063,0.882 l 2.805,2.458 v 2.71 z m 10.114,2.835 c 0.063,-0.346 -0.157,-0.661 -0.504,-0.756 -0.346,-0.063 -0.661,0.158 -0.756,0.504 l -0.725,3.656 -1.323,0.787 c -0.315,0.189 -0.41,0.568 -0.221,0.851 0.189,0.315 0.567,0.41 0.851,0.221 l 1.355,-0.788 3.529,1.197 c 0.347,0.126 0.693,-0.063 0.788,-0.409 0.126,-0.347 -0.063,-0.693 -0.41,-0.82 l -2.489,-0.85 2.332,-1.355 3.529,1.197 c 0.346,0.126 0.693,-0.063 0.819,-0.41 0.126,-0.346 -0.063,-0.693 -0.41,-0.787 L 8.098,-10.745 10.43,-12.1 c 0.315,-0.189 0.41,-0.567 0.221,-0.851 -0.19,-0.315 -0.568,-0.409 -0.851,-0.22 l -2.332,1.323 0.504,-2.584 c 0.063,-0.346 -0.157,-0.661 -0.504,-0.756 -0.347,-0.063 -0.662,0.158 -0.756,0.504 l -0.725,3.655 -2.332,1.355 z M 6.838,-1.954 C 7.184,-2.08 7.342,-2.426 7.247,-2.773 7.121,-3.12 6.775,-3.277 6.46,-3.183 L 2.899,-1.954 1.544,-2.741 C 1.229,-2.93 0.851,-2.804 0.693,-2.521 0.504,-2.206 0.63,-1.828 0.914,-1.67 l 1.355,0.788 0.724,3.655 C 3.057,3.12 3.403,3.34 3.75,3.277 4.096,3.214 4.317,2.867 4.254,2.521 L 3.75,-0.063 6.082,1.292 6.775,4.979 C 6.838,5.325 7.184,5.546 7.531,5.483 7.878,5.42 8.098,5.073 8.035,4.727 L 7.531,2.143 9.863,3.466 c 0.315,0.189 0.693,0.063 0.851,-0.22 C 10.903,2.93 10.777,2.552 10.493,2.395 L 8.161,1.04 10.651,0.189 C 10.997,0.063 11.155,-0.284 11.06,-0.63 10.934,-0.977 10.588,-1.134 10.241,-1.04 L 6.712,0.158 4.38,-1.197 Z m -7.5,7.342 C -0.41,5.609 0,5.577 0.221,5.325 0.441,5.073 0.41,4.664 0.158,4.443 L -2.647,1.985 V 0.441 c 0,-0.346 -0.283,-0.63 -0.63,-0.63 -0.347,0 -0.63,0.284 -0.63,0.63 v 1.544 l -2.805,2.458 c -0.252,0.221 -0.283,0.63 -0.063,0.882 0.221,0.252 0.63,0.284 0.883,0.063 l 1.985,-1.733 v 2.71 l -2.805,2.458 c -0.252,0.221 -0.283,0.63 -0.063,0.882 0.221,0.252 0.63,0.284 0.883,0.063 l 1.985,-1.733 v 2.679 c 0,0.346 0.283,0.63 0.63,0.63 0.347,0 0.63,-0.284 0.63,-0.63 V 8.035 l 1.985,1.733 C -0.41,9.989 0,9.957 0.221,9.705 0.441,9.453 0.41,9.044 0.158,8.823 L -2.647,6.365 v -2.71 z m -1.071,-8.823 0.252,1.923 -1.386,-1.229 c -0.221,-0.221 -0.568,-0.252 -0.82,-0.032 l -1.544,1.166 0.378,-1.828 c 0.063,-0.283 -0.094,-0.598 -0.378,-0.724 l -1.796,-0.725 1.733,-0.567 c 0.284,-0.095 0.504,-0.378 0.441,-0.694 l -0.252,-1.922 1.387,1.229 c 0.22,0.221 0.567,0.252 0.819,0.032 l 1.544,-1.166 -0.347,1.796 c -0.063,0.284 0.095,0.599 0.379,0.725 l 1.796,0.724 -1.733,0.568 c -0.316,0.126 -0.505,0.409 -0.473,0.724" /></g></g></g></g></svg>