<?xml version="1.0" encoding="utf-8"?>
<!-- Generator: Adobe Illustrator 21.1.0, SVG Export Plug-In . SVG Version: 6.00 Build 0)  -->
<svg version="1.1" id="tshirt" xmlns="http://www.w3.org/2000/svg" xmlns:xlink="http://www.w3.org/1999/xlink" x="0px" y="0px"
	 viewBox="-245 337 120 120" style="enable-background:new -245 337 120 120;" xml:space="preserve">
<style type="text/css">
	.st0{fill:#789DCF;}
	.st1{fill:#EBF6F3;}
</style>
<g>
	<rect x="-202.9" y="348.4" class="st0" width="37.8" height="2.2"/>
	<path class="st0" d="M-173.3,455.5v-7.9h-0.9c-3.3,0-6.1-2.7-6.1-6.1c0-0.9,0.2-1.7,0.6-2.6l0.6-1.2h-12.9c-0.6,0-1.1-0.5-1.1-1.1
		v-2c0-8.1-6.6-14.7-14.7-14.7c-0.6,0-1.1-0.5-1.1-1.1s0.5-1.1,1.1-1.1h5.9c4,0,7.5-2.7,8.5-6.6l0.3-1.1h-18.6
		c-1.6,0-2.8,1.3-2.8,2.8v42.6h-2.2v-42.6c0-2.8,2.3-5.1,5.1-5.1h0.9V388h2.2v19.8h16.7c0.6,0,1.1,0.5,1.1,1.1
		c0,4.5-2.9,8.7-7.1,10.3l-1.5,0.6l1.3,0.9c4.6,3.2,7.3,8.4,7.3,13.9v0.9h17.7l-0.6-1.2c-0.4-0.8-0.6-1.7-0.6-2.6
		c0-2.3,1.4-4.5,3.5-5.5l0.9-0.4l-0.5-0.8c-0.6-1-0.9-2.1-0.9-3.2c0-1.6,0.7-3.2,1.8-4.3l0.6-0.6l-0.6-0.6c-1.2-1.2-1.8-2.7-1.8-4.3
		c0-3.3,2.7-6.1,6.1-6.1h5.8v-27.7h2.2v27.7h4.8c3.3,0,6.1,2.7,6.1,6.1c0,1.6-0.7,3.2-1.8,4.3l-0.6,0.6l0.6,0.6
		c1.2,1.2,1.8,2.7,1.8,4.3c0,2.3-1.4,4.5-3.5,5.5l-0.9,0.4l0.5,0.8c0.6,1,0.9,2.1,0.9,3.2c0,3.3-2.6,5.9-5.8,6l-1.3,0.1l0.6,1.2
		c0.4,0.9,0.6,1.7,0.6,2.6c0,3.3-2.7,6.1-6.1,6.1h-9.8v7.9H-173.3z M-174.1,437.7c-2.1,0-3.8,1.7-3.8,3.8c0,2.1,1.7,3.8,3.8,3.8
		h12.9c2.1,0,3.8-1.7,3.8-3.8c0-2.1-1.7-3.8-3.8-3.8H-174.1z M-168.2,427.8c-2.1,0-3.8,1.7-3.8,3.8c0,2.1,1.7,3.8,3.8,3.8h12.9
		c2.1,0,3.8-1.7,3.8-3.8c0-2.1-1.7-3.8-3.8-3.8H-168.2z M-165.2,417.9c-2.1,0-3.8,1.7-3.8,3.8c0,2.1,1.7,3.8,3.8,3.8h12.9
		c2.1,0,3.8-1.7,3.8-3.8c0-2.1-1.7-3.8-3.8-3.8H-165.2z M-165.2,408c-2.1,0-3.8,1.7-3.8,3.8c0,2.1,1.7,3.8,3.8,3.8h12.9
		c2.1,0,3.8-1.7,3.8-3.8c0-2.1-1.7-3.8-3.8-3.8H-165.2z"/>
	<path class="st0" d="M-215,362.1l-2.3-1.8l-0.1-0.3c-0.4-2.1-2.3-3.7-4.5-3.7c-2.5,0-4.5,2-4.5,4.5l0,1l-1-0.2
		c-1.7-0.3-3.3-0.9-4.8-1.9l-0.7-0.5c-0.2-0.1-0.4-0.2-0.6-0.2c-0.2,0-0.4,0.1-0.5,0.1c-0.4,0.2-0.6,0.6-0.6,1v1.6
		c0,2.2,0.7,4.3,1.9,6.1l0.4,0.6l-2,2c-0.3,0.3-0.4,0.8-0.2,1.2c0.2,0.4,0.6,0.7,1,0.7h9.6c3.4,0,6.2-2.5,6.6-5.9l0-0.3l2.4-2.4
		c0.2-0.2,0.3-0.6,0.3-0.9C-214.5,362.6-214.7,362.3-215,362.1z M-219.2,365c-0.2,0.2-0.3,0.5-0.3,0.8c0,2.4-2,4.4-4.3,4.4h-6.3
		l0.5-1.2c0.2-0.4,0.1-0.9-0.2-1.3c-1-1-1.8-2.3-2.1-3.8l-0.4-1.7l1.6,0.7c1.8,0.8,3.7,1.1,5.7,1.1c0.6,0,1.1-0.5,1.1-1.1v-2.1
		c0-1.3,1-2.3,2.3-2.3c1.3,0,2.3,1,2.3,2.3c0,0.4,0.2,0.7,0.4,0.9l1.7,1.3L-219.2,365z"/>
	<path class="st0" d="M-172.1,360.3h-23.7c-2.8,0-5.1,2.3-5.1,5.1v23.7c0,2.8,2.3,5.1,5.1,5.1h23.7c2.8,0,5.1-2.3,5.1-5.1v-23.7
		C-167.1,362.6-169.3,360.3-172.1,360.3z M-169.3,389.1c0,1.6-1.3,2.8-2.8,2.8h-23.7c-1.6,0-2.8-1.3-2.8-2.8v-23.7
		c0-1.6,1.3-2.8,2.8-2.8h23.7c1.6,0,2.8,1.3,2.8,2.8V389.1z"/>
	<path class="st1" d="M-169.3,365.4v23.7c0,1.6-1.3,2.8-2.8,2.8h-23.7c-1.6,0-2.8-1.3-2.8-2.8v-23.7c0-1.6,1.3-2.8,2.8-2.8h23.7
		C-170.6,362.5-169.3,363.8-169.3,365.4z"/>
	<path class="st0" d="M-213.7,348.4h-23.7c-2.8,0-5.1,2.3-5.1,5.1v23.7c0,2.8,2.3,5.1,5.1,5.1h23.7c2.8,0,5.1-2.3,5.1-5.1v-23.7
		C-208.6,350.7-210.9,348.4-213.7,348.4z M-210.8,377.2c0,1.6-1.3,2.8-2.8,2.8h-23.7c-1.6,0-2.8-1.3-2.8-2.8v-23.7
		c0-1.6,1.3-2.8,2.8-2.8h23.7c1.6,0,2.8,1.3,2.8,2.8V377.2z"/>
	<path class="st1" d="M-213.7,350.7h-23.7c-1.6,0-2.8,1.3-2.8,2.8v23.7c0,1.6,1.3,2.8,2.8,2.8h23.7c1.6,0,2.8-1.3,2.8-2.8v-23.7
		C-210.8,351.9-212.1,350.7-213.7,350.7z M-214.8,363.8l-2.4,2.4l0,0.3c-0.4,3.4-3.2,5.9-6.6,5.9h-9.6c-0.4,0-0.9-0.3-1-0.7
		c-0.2-0.4-0.1-0.9,0.2-1.2l2-2l-0.4-0.6c-1.2-1.8-1.9-3.9-1.9-6.1v-1.6c0-0.4,0.2-0.8,0.6-1c0.2-0.1,0.3-0.1,0.5-0.1
		c0.2,0,0.4,0.1,0.6,0.2l0.7,0.5c1.5,1,3.1,1.6,4.8,1.9l1,0.2l0-1c0-2.5,2.1-4.5,4.5-4.5c2.2,0,4,1.5,4.5,3.7l0.1,0.3l2.3,1.8
		c0.3,0.2,0.4,0.5,0.4,0.8C-214.5,363.2-214.6,363.6-214.8,363.8z"/>
	<path class="st1" d="M-217.3,363.1l-1.8,1.9c-0.2,0.2-0.3,0.5-0.3,0.8c0,2.4-2,4.4-4.3,4.4h-6.3l0.5-1.2c0.2-0.4,0.1-0.9-0.2-1.3
		c-1-1-1.8-2.3-2.1-3.8l-0.4-1.7l1.6,0.7c1.8,0.8,3.7,1.1,5.7,1.1c0.6,0,1.1-0.5,1.1-1.1v-2.1c0-1.3,1-2.3,2.3-2.3
		c1.3,0,2.3,1,2.3,2.3c0,0.4,0.2,0.7,0.4,0.9L-217.3,363.1z"/>
	<path class="st0" d="M-130.6,338.5h-23.7c-2.8,0-5.1,2.3-5.1,5.1v23.7c0,2.8,2.3,5.1,5.1,5.1h23.7c2.8,0,5.1-2.3,5.1-5.1v-23.7
		C-125.5,340.8-127.8,338.5-130.6,338.5z M-127.8,367.3c0,1.6-1.3,2.8-2.8,2.8h-23.7c-1.6,0-2.8-1.3-2.8-2.8v-10.7h5.7l0.1,0.7
		c0.8,4.2,4.6,7.2,8.8,7.2c4.3,0,8-3,8.8-7.2l0.1-0.7h5.7V367.3z M-149.3,355.5c0-3.7,3-6.8,6.8-6.8c3.7,0,6.8,3,6.8,6.8
		c0,3.8-3,6.8-6.8,6.8C-146.2,362.3-149.3,359.2-149.3,355.5z M-127.8,354.4h-5.7l-0.1-0.7c-0.9-4.2-4.6-7.2-8.8-7.2
		c-4.3,0-8,3-8.8,7.2l-0.1,0.7h-5.7v-10.7c0-1.6,1.3-2.8,2.8-2.8h23.7c1.6,0,2.8,1.3,2.8,2.8V354.4z"/>
	<path class="st1" d="M-127.8,343.6v10.7h-5.7l-0.1-0.7c-0.9-4.2-4.6-7.2-8.8-7.2c-4.3,0-8,3-8.8,7.2l-0.1,0.7h-5.7v-10.7
		c0-1.6,1.3-2.8,2.8-2.8h23.7C-129.1,340.8-127.8,342.1-127.8,343.6z"/>
	<rect x="-185.1" y="419.6" class="st0" width="2.2" height="2.2"/>
	<path class="st0" d="M-185.1,386.3v-7.9h-4v-2.2h4v-6.8c0-0.6,0.5-1.1,1.1-1.1h5.1v2.2h-4v5.7h4v2.2h-4v7.9H-185.1z"/>
</g>
</svg>
