<?xml version="1.0" encoding="utf-8"?>
<!-- Generator: Adobe Illustrator 19.0.0, SVG Export Plug-In . SVG Version: 6.00 Build 0)  -->
<svg version="1.1"
	 id="svg2" xmlns:svg="http://www.w3.org/2000/svg" xmlns:dc="http://purl.org/dc/elements/1.1/" xmlns:cc="http://creativecommons.org/ns#" xmlns:rdf="http://www.w3.org/1999/02/22-rdf-syntax-ns#"
	 xmlns="http://www.w3.org/2000/svg" xmlns:xlink="http://www.w3.org/1999/xlink" x="0px" y="0px" width="160px" height="160px"
	 viewBox="-419 421 160 160" enable-background="new -419 421 160 160" xml:space="preserve">
<g>
	<defs>
		<rect id="SVGID_1_" x="-419" y="421" width="160" height="160"/>
	</defs>
	<clipPath id="SVGID_2_">
		<use xlink:href="#SVGID_1_"  overflow="visible"/>
	</clipPath>
	<g clip-path="url(#SVGID_2_)">
		<path fill="#779DCF" d="M-261.8,505.3c2.2-2.5,2.2-6.2,0-8.6c-1.8-2.1-2.2-5.1-0.8-7.5c1.6-2.9,0.8-6.5-1.8-8.4
			c-2.2-1.7-3.2-4.5-2.3-7.2c1-3.1-0.5-6.5-3.5-7.9c-2.5-1.2-4-3.8-3.8-6.5c0.3-3.3-1.9-6.3-5.1-7c-2.7-0.6-4.7-2.9-5.1-5.6
			c-0.4-3.3-3.1-5.7-6.4-5.8c-2.8,0-5.2-1.8-6.1-4.4v0c-1-3.1-4.3-5-7.5-4.3c-2.7,0.6-5.5-0.7-6.9-3.1c-1.7-2.8-5.2-4-8.2-2.7
			c-2.5,1.1-5.5,0.5-7.4-1.6v0c-2.2-2.4-5.9-2.8-8.6-0.9c-2.3,1.6-5.3,1.6-7.6,0c-2.7-1.9-6.4-1.5-8.6,0.9v0c-1.9,2-4.8,2.7-7.4,1.6
			c-3-1.3-6.5-0.2-8.2,2.7c-1.4,2.4-4.2,3.6-6.9,3.1c-3.2-0.7-6.4,1.2-7.5,4.3v0c-0.9,2.6-3.3,4.4-6.1,4.4c-3.3,0-6,2.5-6.4,5.8
			c-0.3,2.8-2.3,5-5.1,5.6c-3.2,0.7-5.4,3.7-5.1,7c0.3,2.8-1.3,5.4-3.8,6.5c-3,1.4-4.5,4.7-3.5,7.9c0.8,2.7-0.1,5.5-2.3,7.2
			c-2.6,2-3.4,5.6-1.8,8.4c1.4,2.4,1.1,5.4-0.8,7.5c-2.2,2.5-2.2,6.2,0,8.6c1.8,2.1,2.2,5.1,0.8,7.5c-1.6,2.9-0.8,6.5,1.8,8.4
			c2.2,1.7,3.2,4.5,2.3,7.2c-1,3.1,0.5,6.5,3.5,7.9c2.5,1.2,4,3.8,3.8,6.5c-0.3,3.3,1.9,6.3,5.1,7c2.7,0.6,4.7,2.9,5.1,5.6
			c0.4,3.3,3.1,5.7,6.4,5.8c2.8,0,5.2,1.8,6.1,4.4v0c1,3.1,4.3,5,7.5,4.3c2.7-0.6,5.5,0.7,6.9,3.1c1.7,2.8,5.2,4,8.2,2.7
			c2.5-1.1,5.5-0.5,7.4,1.6v0c2.2,2.4,5.9,2.8,8.6,0.9c2.3-1.6,5.3-1.6,7.6,0c2.7,1.9,6.4,1.5,8.6-0.9v0c1.9-2,4.8-2.7,7.4-1.6
			c3,1.3,6.5,0.2,8.2-2.7c1.4-2.4,4.2-3.6,6.9-3.1c3.2,0.7,6.4-1.2,7.5-4.3v0c0.9-2.6,3.3-4.4,6.1-4.4c3.3,0,6-2.5,6.4-5.8
			c0.3-2.8,2.3-5,5.1-5.6c3.2-0.7,5.4-3.7,5.1-7c-0.3-2.8,1.3-5.4,3.8-6.5c3-1.4,4.5-4.7,3.5-7.9c-0.8-2.7,0.1-5.5,2.3-7.2
			c2.6-2,3.4-5.6,1.8-8.4C-263.9,510.4-263.6,507.4-261.8,505.3z M-265,520.5c-2.6,1.9-3.7,5.2-2.7,8.3c0.8,2.7-0.4,5.5-3,6.7
			c-2.9,1.3-4.7,4.4-4.4,7.6c0.3,2.8-1.6,5.3-4.3,5.9c-3.1,0.7-5.5,3.3-5.8,6.5c-0.3,2.8-2.6,4.9-5.4,4.9c-3.2,0-6,2.1-7.1,5.1
			c-0.8,2.2-2.9,3.8-5.2,3.8c-0.4,0-0.7,0-1.1-0.1c-0.5-0.1-1-0.2-1.5-0.2c-2.6,0-5.1,1.4-6.5,3.7c-1,1.7-2.8,2.7-4.8,2.7
			c-0.8,0-1.5-0.2-2.2-0.5c-1-0.4-2-0.6-3-0.6c-2.1,0-4.1,0.9-5.5,2.4c-1,1.1-2.5,1.8-4.1,1.8c-1.2,0-2.3-0.4-3.2-1
			c-1.3-0.9-2.8-1.4-4.4-1.4s-3.1,0.5-4.4,1.4c-0.9,0.7-2,1-3.2,1c-1.5,0-3-0.7-4.1-1.8c-1.4-1.5-3.4-2.4-5.5-2.4c-1,0-2,0.2-3,0.6
			c-0.7,0.3-1.4,0.5-2.2,0.5c-1.9,0-3.8-1-4.8-2.7c-1.3-2.3-3.8-3.7-6.5-3.7c-0.5,0-1,0-1.5,0.1c-0.4,0.1-0.7,0.1-1.1,0.1
			c-2.4,0-4.5-1.5-5.2-3.8c-1-3-3.9-5.1-7.1-5.1c-2.8,0-5.1-2.1-5.4-4.9c-0.4-3.2-2.7-5.8-5.8-6.5c-2.7-0.6-4.6-3.1-4.3-5.9
			c0.3-3.2-1.4-6.2-4.4-7.6c-2.5-1.2-3.8-4-3-6.7c1-3.1-0.1-6.4-2.7-8.3c-2.2-1.7-2.9-4.7-1.5-7.1c1.6-2.8,1.2-6.3-0.9-8.7
			c-1.8-2.1-1.8-5.2,0-7.3c2.1-2.4,2.5-5.9,0.9-8.7c-1.4-2.4-0.7-5.5,1.5-7.1c2.6-1.9,3.7-5.2,2.7-8.3c-0.8-2.6,0.4-5.5,3-6.7
			c2.9-1.3,4.7-4.4,4.4-7.6c-0.3-2.8,1.6-5.3,4.3-5.9c3.1-0.7,5.5-3.3,5.8-6.5c0.3-2.8,2.6-4.9,5.4-4.9c3.2,0,6-2.1,7.1-5.1
			c0.8-2.2,2.9-3.8,5.2-3.8c0.4,0,0.7,0,1.1,0.1c0.5,0.1,1,0.2,1.5,0.2c2.6,0,5.1-1.4,6.5-3.7c1-1.7,2.8-2.7,4.8-2.7
			c0.8,0,1.5,0.2,2.2,0.5c1,0.4,2,0.6,3,0.6c2.1,0,4.1-0.9,5.5-2.4c1-1.1,2.5-1.8,4.1-1.8c1.2,0,2.3,0.4,3.2,1
			c1.3,0.9,2.8,1.4,4.4,1.4s3.1-0.5,4.4-1.4c0.9-0.7,2-1,3.2-1c1.5,0,3,0.7,4.1,1.8c1.4,1.5,3.4,2.4,5.5,2.4c1,0,2-0.2,3-0.6
			c0.7-0.3,1.4-0.5,2.2-0.5c1.9,0,3.8,1,4.7,2.7c1.3,2.3,3.8,3.7,6.5,3.7c0.5,0,1-0.1,1.5-0.2c0.4-0.1,0.7-0.1,1.1-0.1
			c2.4,0,4.5,1.5,5.2,3.8c1,3,3.9,5.1,7.1,5.1c2.8,0,5.1,2.1,5.4,4.9c0.4,3.2,2.7,5.8,5.8,6.5c2.7,0.6,4.6,3.1,4.3,5.9
			c-0.3,3.2,1.4,6.2,4.4,7.6c2.5,1.2,3.8,4,3,6.7c-1,3.1,0.1,6.4,2.7,8.3c2.2,1.7,2.9,4.7,1.5,7.1c-1.6,2.8-1.2,6.3,0.9,8.7
			c1.8,2.1,1.8,5.2,0,7.3c-2.1,2.4-2.5,5.9-0.9,8.7C-262.1,515.7-262.7,518.8-265,520.5z"/>
		<path fill="#779DCF" d="M-263.3,498c-2.4-2.7-2.8-6.7-1-9.8c1.1-2,0.6-4.5-1.2-5.8c-2.9-2.2-4.1-5.9-3.1-9.4
			c0.7-2.2-0.4-4.5-2.4-5.5c-3.3-1.5-5.3-5-4.9-8.6c0.2-2.3-1.3-4.3-3.5-4.8c-3.5-0.8-6.2-3.7-6.6-7.4c-0.3-2.3-2.2-4-4.4-4
			c-3.6,0-6.9-2.4-8-5.8c-0.6-1.8-2.3-3.1-4.3-3.1c-0.3,0-0.6,0-0.9,0.1c-0.6,0.1-1.1,0.2-1.7,0.2c-3,0-5.8-1.6-7.3-4.2
			c-0.8-1.4-2.3-2.2-3.9-2.2c-0.6,0-1.2,0.1-1.8,0.4c-1.1,0.5-2.2,0.7-3.4,0.7c-2.4,0-4.7-1-6.3-2.8c-0.9-0.9-2.1-1.5-3.3-1.5
			c-0.9,0-1.8,0.3-2.6,0.8c-1.5,1-3.2,1.6-4.9,1.6s-3.5-0.5-4.9-1.6c-0.8-0.5-1.7-0.8-2.6-0.8c-1.3,0-2.5,0.5-3.3,1.5
			c-1.6,1.8-3.9,2.8-6.3,2.8c-1.2,0-2.3-0.2-3.4-0.7c-0.6-0.2-1.2-0.4-1.8-0.4c-1.6,0-3.1,0.9-3.9,2.2c-1.5,2.6-4.3,4.2-7.3,4.2
			c-0.6,0-1.1-0.1-1.7-0.2c-0.3-0.1-0.6-0.1-0.9-0.1c-1.9,0-3.7,1.2-4.3,3.1c-1.2,3.4-4.4,5.8-8,5.8c-2.3,0-4.2,1.7-4.4,4
			c-0.4,3.6-3.1,6.6-6.6,7.4c-2.2,0.5-3.7,2.6-3.5,4.8c0.3,3.6-1.6,7.1-4.9,8.6c-2.1,0.9-3.1,3.3-2.4,5.5c1.1,3.5-0.1,7.2-3.1,9.4
			c-1.8,1.4-2.4,3.9-1.2,5.8c1.8,3.2,1.4,7.1-1,9.8c-1.5,1.7-1.5,4.3,0,6c2.4,2.7,2.8,6.7,1,9.8c-1.1,2-0.6,4.5,1.2,5.8
			c2.9,2.2,4.2,5.9,3.1,9.4c-0.7,2.2,0.4,4.5,2.4,5.5c3.3,1.5,5.3,5,4.9,8.6c-0.2,2.3,1.3,4.3,3.5,4.8c3.5,0.8,6.2,3.7,6.6,7.4
			c0.3,2.3,2.2,4,4.4,4c3.6,0,6.9,2.4,8,5.8c0.6,1.8,2.3,3.1,4.3,3.1c0.3,0,0.6,0,0.9-0.1c0.6-0.1,1.1-0.2,1.7-0.2
			c3,0,5.8,1.6,7.3,4.2c0.8,1.4,2.3,2.2,3.9,2.2c0.6,0,1.2-0.1,1.8-0.4c1.1-0.5,2.2-0.7,3.4-0.7c2.4,0,4.7,1,6.3,2.8
			c0.9,0.9,2.1,1.5,3.3,1.5c0.9,0,1.8-0.3,2.6-0.8c1.5-1,3.2-1.6,4.9-1.6s3.5,0.5,4.9,1.6c0.8,0.5,1.7,0.8,2.6,0.8
			c1.3,0,2.5-0.5,3.3-1.5c1.6-1.8,3.9-2.8,6.3-2.8c1.2,0,2.3,0.2,3.4,0.7c0.6,0.2,1.2,0.4,1.8,0.4c1.6,0,3.1-0.9,3.9-2.2
			c1.5-2.6,4.3-4.2,7.3-4.2c0.6,0,1.1,0.1,1.7,0.2c0.3,0.1,0.6,0.1,0.9,0.1c1.9,0,3.7-1.2,4.3-3.1c1.2-3.4,4.4-5.8,8-5.8
			c2.3,0,4.2-1.7,4.4-4c0.4-3.6,3.1-6.6,6.6-7.4c2.2-0.5,3.7-2.6,3.5-4.8c-0.3-3.6,1.6-7.1,4.9-8.6c2.1-0.9,3.1-3.3,2.4-5.5
			c-1.1-3.5,0.1-7.2,3.1-9.4c1.8-1.4,2.4-3.9,1.2-5.8c-1.8-3.2-1.4-7.1,1-9.8C-261.8,502.3-261.8,499.7-263.3,498z M-265.5,502
			c-3.3,3.7-3.8,9-1.4,13.3c0.4,0.7,0.2,1.5-0.4,1.9c-4,2.9-5.6,8-4.1,12.7c0.2,0.7-0.1,1.5-0.8,1.8c-4.5,2-7.2,6.7-6.7,11.6
			c0.1,0.7-0.4,1.4-1.2,1.6c-4.8,1.1-8.4,5.1-9,10c-0.1,0.7-0.7,1.3-1.5,1.3c-4.9,0-9.3,3.2-10.8,7.9c-0.2,0.6-0.8,1-1.4,1
			c-0.1,0-0.2,0-0.3,0c-0.8-0.2-1.5-0.2-2.3-0.2c-4.1,0-7.9,2.2-9.9,5.7c-0.3,0.4-0.8,0.7-1.3,0.7c-0.2,0-0.4,0-0.6-0.1
			c-1.5-0.6-3-1-4.6-1c-3.2,0-6.3,1.4-8.5,3.7c-0.3,0.3-0.7,0.5-1.1,0.5c-0.3,0-0.6-0.1-0.9-0.3c-2-1.4-4.3-2.1-6.7-2.1
			c-2.4,0-4.7,0.7-6.7,2.1c-0.3,0.2-0.5,0.3-0.9,0.3c-0.4,0-0.8-0.2-1.1-0.5c-2.2-2.4-5.3-3.7-8.5-3.7c-1.6,0-3.1,0.3-4.6,1
			c-0.2,0.1-0.4,0.1-0.6,0.1c-0.5,0-1-0.3-1.3-0.7c-2.1-3.5-5.9-5.7-9.9-5.7c-0.8,0-1.5,0.1-2.3,0.2c-0.1,0-0.2,0-0.3,0
			c-0.6,0-1.2-0.4-1.4-1c-1.6-4.7-5.9-7.8-10.8-7.9c-0.8,0-1.4-0.6-1.5-1.3c-0.6-4.9-4.2-8.9-9-10c-0.7-0.2-1.2-0.9-1.2-1.6
			c0.5-4.9-2.2-9.6-6.7-11.6c-0.7-0.3-1-1.1-0.8-1.8c1.5-4.7-0.2-9.8-4.1-12.7c-0.6-0.4-0.8-1.3-0.4-1.9c2.4-4.3,1.9-9.6-1.4-13.3
			c-0.5-0.6-0.5-1.4,0-2c3.3-3.7,3.8-9,1.4-13.3c-0.4-0.7-0.2-1.5,0.4-1.9c4-2.9,5.6-8,4.1-12.7c-0.2-0.7,0.1-1.5,0.8-1.8
			c4.5-2,7.2-6.7,6.7-11.6c-0.1-0.7,0.4-1.4,1.2-1.6c4.8-1.1,8.4-5.1,9-10c0.1-0.7,0.7-1.3,1.5-1.3c4.9,0,9.3-3.2,10.8-7.9
			c0.2-0.6,0.8-1,1.4-1c0.1,0,0.2,0,0.3,0c0.8,0.2,1.5,0.2,2.3,0.2c4.1,0,7.9-2.2,9.9-5.7c0.3-0.4,0.8-0.7,1.3-0.7
			c0.2,0,0.4,0,0.6,0.1c1.5,0.6,3,1,4.6,1c3.2,0,6.3-1.4,8.5-3.7c0.3-0.3,0.7-0.5,1.1-0.5c0.3,0,0.6,0.1,0.9,0.3
			c2,1.4,4.3,2.1,6.7,2.1s4.7-0.7,6.7-2.1c0.3-0.2,0.5-0.3,0.9-0.3c0.4,0,0.8,0.2,1.1,0.5c2.2,2.4,5.3,3.7,8.5,3.7
			c1.6,0,3.1-0.3,4.6-1c0.2-0.1,0.4-0.1,0.6-0.1c0.5,0,1,0.3,1.3,0.7c2.1,3.5,5.9,5.7,9.9,5.7c0.8,0,1.5-0.1,2.3-0.2
			c0.1,0,0.2,0,0.3,0c0.6,0,1.2,0.4,1.4,1c1.6,4.7,5.9,7.8,10.8,7.9c0.8,0,1.4,0.6,1.5,1.3c0.6,4.9,4.2,8.9,9,9.9
			c0.7,0.2,1.2,0.9,1.2,1.6c-0.5,4.9,2.2,9.6,6.7,11.6c0.7,0.3,1,1.1,0.8,1.8c-1.5,4.7,0.2,9.8,4.1,12.7c0.6,0.4,0.8,1.3,0.4,1.9
			c-2.4,4.3-1.9,9.6,1.4,13.3C-265,500.6-265,501.4-265.5,502z"/>
		<path fill="#779DCF" d="M-339,427.2c-40.8,0-73.8,33.1-73.8,73.8s33.1,73.8,73.8,73.8s73.8-33.1,73.8-73.8S-298.2,427.2-339,427.2
			z M-339,571c-38.6,0-70-31.3-70-70c0-38.6,31.3-70,70-70c38.6,0,70,31.3,70,70C-269,539.6-300.4,571-339,571z"/>
		<path fill="#779DCF" d="M-339,454.8c-25.5,0-46.2,20.7-46.2,46.2c0,25.5,20.7,46.2,46.2,46.2c25.5,0,46.2-20.7,46.2-46.2
			C-292.8,475.5-313.5,454.8-339,454.8z M-339,543.6c-23.5,0-42.6-19.1-42.6-42.6c0-23.5,19.1-42.6,42.6-42.6
			c23.5,0,42.6,19.1,42.6,42.6C-296.4,524.5-315.5,543.6-339,543.6z"/>
		<path fill="#779DCF" d="M-324.4,498c0-0.1,0-0.3,0-0.4v-10.9c0-8.1-6.6-14.6-14.6-14.6h0c-8.1,0-14.6,6.6-14.6,14.6v10.9
			c0,0.1,0,0.3,0,0.4c-2.9,3.4-4.7,7.8-4.7,12.6c0,10.7,8.6,19.3,19.3,19.3s19.3-8.6,19.3-19.3C-319.7,505.8-321.5,501.4-324.4,498z
			 M-339,476.4c5.7,0,10.3,4.6,10.3,10.3v7.6c-3-1.9-6.5-3-10.3-3c-3.8,0-7.3,1.1-10.3,3v-7.6C-349.3,481-344.7,476.4-339,476.4z
			 M-336.6,514.7v5.3c0,1.3-1.1,2.4-2.4,2.4c-1.3,0-2.4-1.1-2.4-2.4v-5.3c-1.1-0.8-1.9-2.1-1.9-3.5c0-2.4,1.9-4.3,4.3-4.3
			c2.4,0,4.3,1.9,4.3,4.3C-334.7,512.6-335.5,513.9-336.6,514.7z"/>
		<g>
			<path fill="#779DCF" d="M-386.2,543.3c-0.3-1-0.3-2,0-3c0.3-1,0.8-1.9,1.6-2.6s1.7-1.3,2.7-1.5s2-0.2,3,0.1
				c1,0.3,1.9,0.9,2.7,1.7c0.6,0.6,1.1,1.3,1.4,2.1s0.4,1.5,0.4,2.3l-1.5-0.1c0.1-1.2-0.4-2.3-1.3-3.3c-0.6-0.6-1.3-1-2-1.3
				c-0.8-0.2-1.5-0.3-2.3-0.1c-0.8,0.2-1.4,0.6-2,1.1c-0.6,0.6-1,1.2-1.2,2c-0.2,0.7-0.2,1.5,0,2.3c0.2,0.8,0.6,1.4,1.2,2.1
				c0.9,0.9,2,1.4,3.2,1.4l0,1.5c-0.8,0-1.5-0.1-2.3-0.4c-0.7-0.3-1.4-0.8-2-1.5C-385.3,545.2-385.9,544.3-386.2,543.3z"/>
			<path fill="#779DCF" d="M-377.6,551.4c-0.3-0.7-0.5-1.4-0.4-2.2c0.1-0.8,0.4-1.5,0.8-2.2c0.5-0.7,1.1-1.2,1.8-1.5
				c0.7-0.3,1.4-0.4,2.2-0.3c0.8,0.1,1.5,0.4,2.2,0.9s1.2,1.1,1.6,1.8c0.3,0.7,0.5,1.4,0.4,2.2c-0.1,0.8-0.4,1.5-0.8,2.2
				c-0.5,0.7-1.1,1.2-1.8,1.5c-0.7,0.3-1.4,0.4-2.2,0.4c-0.8-0.1-1.5-0.4-2.2-0.9C-376.7,552.7-377.3,552.1-377.6,551.4z
				 M-373.8,552.6c0.5,0,1,0,1.5-0.3c0.5-0.2,0.9-0.6,1.2-1.1c0.3-0.5,0.6-1,0.6-1.5c0.1-0.5,0-1-0.2-1.5c-0.2-0.5-0.5-0.9-1-1.2
				c-0.5-0.3-0.9-0.5-1.4-0.6c-0.5-0.1-1,0-1.5,0.3c-0.5,0.2-0.9,0.6-1.2,1.1c-0.3,0.5-0.6,1-0.6,1.5c-0.1,0.5,0,1,0.2,1.5
				c0.2,0.5,0.5,0.9,1,1.2C-374.8,552.4-374.3,552.6-373.8,552.6z"/>
			<path fill="#779DCF" d="M-359.4,553.4c0.3,0.8,0.2,1.8-0.3,3l-2.1,4.5l-1.4-0.7l2-4.4c0.3-0.8,0.4-1.4,0.2-2
				c-0.2-0.6-0.6-1-1.3-1.3c-0.8-0.4-1.5-0.4-2.1-0.2s-1.2,0.8-1.6,1.6l-1.9,4.1l-1.4-0.7l3.6-7.9l1.4,0.6l-0.5,1.2
				c0.5-0.3,1-0.4,1.6-0.4c0.6,0,1.2,0.2,1.8,0.4C-360.4,551.9-359.8,552.5-359.4,553.4z"/>
			<path fill="#779DCF" d="M-353.9,553.5l-0.2,0.7l2.5,0.6l-0.3,1.3l-2.4-0.6l-1.7,7.2l-1.5-0.4l1.7-7.2l-1.4-0.3l0.3-1.3l1.4,0.3
				l0.2-0.7c0.2-0.8,0.6-1.4,1.2-1.8c0.6-0.4,1.3-0.5,2.2-0.3c0.3,0.1,0.6,0.2,0.9,0.3c0.3,0.2,0.5,0.3,0.7,0.5l-0.7,1.1
				c-0.3-0.3-0.7-0.6-1.1-0.7C-353.1,552.1-353.6,552.5-353.9,553.5z M-348.8,555.4l1.5,0.4l-2,8.4l-1.5-0.4L-348.8,555.4z
				 M-348.4,553.5c-0.2-0.2-0.2-0.5-0.1-0.8c0.1-0.3,0.2-0.5,0.5-0.6c0.2-0.2,0.5-0.2,0.8-0.1c0.3,0.1,0.5,0.2,0.7,0.5
				c0.2,0.2,0.2,0.5,0.1,0.8c-0.1,0.3-0.2,0.5-0.5,0.7s-0.5,0.2-0.8,0.1C-348,553.9-348.2,553.8-348.4,553.5z"/>
			<path fill="#779DCF" d="M-336.4,552.9l-0.3,12.1l-1.5,0l0-1.4c-0.4,0.5-0.8,0.8-1.4,1.1c-0.5,0.2-1.1,0.3-1.8,0.3
				c-0.8,0-1.6-0.2-2.2-0.6c-0.7-0.4-1.2-0.9-1.5-1.6c-0.4-0.7-0.5-1.5-0.5-2.3c0-0.9,0.2-1.6,0.6-2.3c0.4-0.7,0.9-1.2,1.6-1.5
				c0.7-0.4,1.4-0.5,2.3-0.5c0.6,0,1.2,0.2,1.7,0.4c0.5,0.2,0.9,0.6,1.3,1.1l0.1-4.8L-336.4,552.9z M-339.6,563.3
				c0.5-0.2,0.8-0.6,1.1-1.1c0.3-0.5,0.4-1,0.4-1.6c0-0.6-0.1-1.1-0.3-1.6c-0.2-0.5-0.6-0.8-1-1.1c-0.4-0.3-0.9-0.4-1.5-0.4
				c-0.6,0-1.1,0.1-1.5,0.3c-0.4,0.2-0.8,0.6-1.1,1c-0.3,0.5-0.4,1-0.4,1.6c0,0.6,0.1,1.1,0.3,1.6c0.2,0.5,0.6,0.8,1,1.1
				c0.4,0.3,0.9,0.4,1.5,0.4C-340.6,563.6-340.1,563.5-339.6,563.3z"/>
			<path fill="#779DCF" d="M-325.4,559.7l-6.9,1.1c0.2,0.7,0.6,1.3,1.3,1.7c0.6,0.4,1.4,0.5,2.2,0.4c1-0.2,1.8-0.6,2.3-1.4l1,0.9
				c-0.3,0.5-0.7,0.9-1.3,1.3c-0.5,0.3-1.2,0.5-1.9,0.7c-0.9,0.1-1.7,0.1-2.5-0.2c-0.8-0.3-1.4-0.7-1.9-1.3
				c-0.5-0.6-0.8-1.3-0.9-2.2c-0.1-0.8-0.1-1.6,0.2-2.3s0.7-1.3,1.3-1.8c0.6-0.5,1.3-0.8,2.1-0.9c0.8-0.1,1.6-0.1,2.3,0.2
				c0.7,0.3,1.3,0.7,1.7,1.3c0.5,0.6,0.8,1.3,0.9,2.2C-325.4,559.3-325.4,559.5-325.4,559.7z M-331.9,557.8
				c-0.4,0.5-0.6,1.2-0.6,1.9l5.5-0.9c-0.2-0.7-0.6-1.3-1.2-1.6s-1.2-0.5-2-0.4C-330.9,556.9-331.4,557.2-331.9,557.8z"/>
			<path fill="#779DCF" d="M-317.1,552.8c0.8,0.4,1.4,1.2,1.9,2.3l1.7,4.7l-1.5,0.5l-1.6-4.5c-0.3-0.8-0.7-1.3-1.2-1.6
				c-0.5-0.3-1.1-0.3-1.8,0c-0.8,0.3-1.3,0.7-1.6,1.4c-0.3,0.6-0.3,1.4,0,2.3l1.5,4.2l-1.5,0.5l-2.9-8.2l1.4-0.5l0.4,1.2
				c0.1-0.5,0.4-1,0.9-1.4c0.4-0.4,1-0.7,1.6-1C-318.9,552.4-318,552.4-317.1,552.8z"/>
			<path fill="#779DCF" d="M-306,555.2c-0.1,0.3-0.3,0.5-0.5,0.8c-0.2,0.3-0.5,0.5-0.8,0.6c-0.8,0.4-1.5,0.5-2.1,0.4
				c-0.6-0.2-1.2-0.7-1.6-1.4l-2.3-4.2l-1.3,0.7l-0.6-1.1l1.3-0.7l-0.9-1.7l1.4-0.8l0.9,1.7l2.2-1.2l0.6,1.1l-2.2,1.2l2.3,4.1
				c0.2,0.4,0.5,0.7,0.8,0.8c0.3,0.1,0.7,0.1,1.1-0.2c0.4-0.2,0.7-0.5,0.9-0.9L-306,555.2z"/>
			<path fill="#779DCF" d="M-309.6,545.4c-0.3,0-0.5-0.2-0.7-0.4c-0.2-0.2-0.2-0.5-0.2-0.8c0.1-0.3,0.2-0.5,0.5-0.7
				c0.3-0.2,0.5-0.2,0.8-0.2c0.3,0,0.5,0.2,0.7,0.4c0.2,0.2,0.2,0.5,0.2,0.8c-0.1,0.3-0.2,0.5-0.5,0.7
				C-309,545.4-309.3,545.5-309.6,545.4z M-308.5,547.1l1.3-0.9l4.9,7.2l-1.3,0.9L-308.5,547.1z"/>
			<path fill="#779DCF" d="M-299.9,541.3c0.9,0,1.7,0.5,2.5,1.3l3.5,3.9l-1.1,1l-0.8-0.9c0.1,0.5,0,1-0.2,1.4s-0.6,0.9-1.1,1.4
				c-0.7,0.6-1.5,1-2.2,1c-0.7,0-1.4-0.2-1.9-0.8s-0.7-1.2-0.6-1.9s0.6-1.5,1.5-2.3l1.9-1.6l-0.2-0.2c-0.4-0.5-0.9-0.8-1.5-0.8
				c-0.5,0-1.1,0.2-1.7,0.7c-0.4,0.3-0.7,0.7-1,1.2c-0.3,0.5-0.4,0.9-0.5,1.3l-1.3-0.4c0.1-0.6,0.3-1.1,0.7-1.7
				c0.3-0.6,0.8-1.1,1.3-1.5C-301.7,541.6-300.8,541.3-299.9,541.3z M-296.9,547.1c0.1-0.5,0.1-1,0-1.5l-0.8-0.9l-1.8,1.6
				c-1,0.9-1.2,1.7-0.6,2.3c0.3,0.3,0.6,0.5,1.1,0.4c0.4,0,0.9-0.3,1.3-0.7C-297.3,548-297,547.5-296.9,547.1z"/>
			<path fill="#779DCF" d="M-300.6,535.7l1-1.2l9.1,8l-1,1.2L-300.6,535.7z"/>
		</g>
		<g>
			<path fill="#779DCF" d="M-354.5,438.1l4.3,12.5l-1.5,0.5l-10.7-6.8l3.2,9.3l-1.8,0.6l-4.3-12.5l1.5-0.5l10.7,6.8l-3.2-9.3
				L-354.5,438.1z"/>
			<path fill="#779DCF" d="M-344.5,436.4l5.6,0.1c1.4,0,2.6,0.3,3.7,0.9c1.1,0.6,1.9,1.4,2.5,2.4c0.6,1,0.9,2.2,0.8,3.5
				c0,1.3-0.3,2.4-1,3.4c-0.6,1-1.5,1.7-2.6,2.3c-1.1,0.5-2.3,0.8-3.7,0.8l-5.6-0.1L-344.5,436.4z M-339.2,448c1.1,0,2-0.2,2.8-0.6
				c0.8-0.4,1.5-1,1.9-1.7c0.5-0.7,0.7-1.6,0.7-2.6c0-1-0.2-1.8-0.6-2.6c-0.4-0.8-1-1.3-1.8-1.8c-0.8-0.4-1.7-0.6-2.8-0.7l-3.6-0.1
				l-0.2,9.9L-339.2,448z"/>
			<path fill="#779DCF" d="M-318.6,450.2l-6.7-2.2l-2.4,2.7l-1.8-0.6l9.8-10.7l1.8,0.6l1.6,14.4l-1.9-0.6L-318.6,450.2z
				 M-318.8,448.5l-0.7-7l-4.7,5.3L-318.8,448.5z"/>
		</g>
		<polygon fill="#779DCF" points="-373.3,449.7 -372.2,452.1 -369.5,452.4 -371.4,454.3 -371,457 -373.3,455.7 -375.7,457 
			-375.3,454.3 -377.2,452.4 -374.5,452.1 		"/>
		<path fill="#779DCF" d="M-409.7,490.8v20.3h26.6v-20.3H-409.7z M-393.4,506l-3.5-1.8l-3.5,1.8l0.7-3.9l-2.8-2.7l3.9-0.6l1.7-3.5
			l1.7,3.5l3.9,0.6l-2.8,2.7L-393.4,506z"/>
		<path fill="#779DCF" d="M-295.5,490.8v20.3h28.1v-20.3H-295.5z M-277.7,506l-3.5-1.8l-3.5,1.8l0.7-3.9l-2.8-2.7l3.9-0.6l1.7-3.5
			l1.7,3.5l3.9,0.6l-2.8,2.7L-277.7,506z"/>
		<polygon fill="#779DCF" points="-304,449.7 -302.8,452.1 -300.1,452.4 -302.1,454.3 -301.6,457 -304,455.7 -306.4,457 
			-305.9,454.3 -307.8,452.4 -305.2,452.1 		"/>
	</g>
</g>
</svg>
