<?xml version="1.0" encoding="utf-8"?>
<!-- Generator: Adobe Illustrator 19.0.0, SVG Export Plug-In . SVG Version: 6.00 Build 0)  -->
<svg version="1.1" id="business-card" xmlns="http://www.w3.org/2000/svg" xmlns:xlink="http://www.w3.org/1999/xlink" x="0px"
	 y="0px" viewBox="0 0 120 120" style="enable-background:new 0 0 120 120;" xml:space="preserve">
<style type="text/css">
	.st0{fill:#789DCF;}
	.st1{fill:#FFFFFF;}
	.st2{fill:#EBF6F3;}
	.st3{fill:#D7D8D6;}
</style>
<g id="XMLID_31_">
	<path id="XMLID_60_" class="st0" d="M87.2,51.3L21.8,16.7c-0.4-0.2-0.8-0.1-1,0.3L1.4,53.6c-0.2,0.4-0.1,0.8,0.3,1l65.4,34.6
		c0.4,0.2,0.8,0.1,1-0.3l19.4-36.6C87.7,51.9,87.6,51.5,87.2,51.3z M67.2,87.6L3.1,53.7l18.7-35.3l64.1,33.9L67.2,87.6z"/>
	<polygon id="XMLID_21_" class="st1" points="85.9,52.3 67.2,87.6 3.1,53.7 21.8,18.3 	"/>
	<path id="XMLID_47_" class="st0" d="M29.4,29.1c-2.9-1.5-6.5-0.4-8,2.5c-1.5,2.9-0.4,6.5,2.5,8c2.9,1.5,6.5,0.4,8-2.5
		C33.4,34.2,32.3,30.6,29.4,29.1z M30.6,36.4c-1.1,2.2-3.8,3-6,1.8c-2.2-1.1-3-3.8-1.8-6c1.1-2.2,3.8-3,6-1.8
		C30.9,31.6,31.8,34.3,30.6,36.4z"/>
	<path id="XMLID_22_" class="st2" d="M30.6,36.4c-1.1,2.2-3.8,3-6,1.8c-2.2-1.1-3-3.8-1.8-6c1.1-2.2,3.8-3,6-1.8
		C30.9,31.6,31.8,34.3,30.6,36.4z"/>
	<path id="XMLID_44_" class="st0" d="M75.8,57L39.2,37.6c-0.4-0.2-0.8-0.1-1,0.3l-1.4,2.6c-0.2,0.4-0.1,0.8,0.3,1l36.6,19.4
		c0.4,0.2,0.8,0.1,1-0.3l1.4-2.6C76.3,57.6,76.2,57.2,75.8,57z M73.8,59.3L38.5,40.6l0.7-1.3L74.5,58L73.8,59.3z"/>
	<path id="XMLID_13_" class="st0" d="M62.4,66.6L34.9,52.1c-0.4-0.2-0.5-0.6-0.3-1s0.6-0.5,1-0.3L63,65.3c0.4,0.2,0.5,0.6,0.3,1
		C63.2,66.7,62.7,66.8,62.4,66.6z"/>
	<path id="XMLID_12_" class="st0" d="M30.2,54.6c-0.4-0.2-0.5-0.6-0.3-1c0.2-0.4,0.6-0.5,1-0.3l0,0c0.4,0.2,0.5,0.6,0.3,1
		C31,54.7,30.6,54.8,30.2,54.6z"/>
	<path id="XMLID_11_" class="st0" d="M47.2,63.6L32.8,56c-0.4-0.2-0.5-0.6-0.3-1c0.2-0.4,0.6-0.5,1-0.3l14.4,7.6
		c0.4,0.2,0.5,0.6,0.3,1S47.6,63.8,47.2,63.6z"/>
	<path id="XMLID_10_" class="st0" d="M28.2,58.6c-0.4-0.2-0.5-0.6-0.3-1c0.2-0.4,0.6-0.5,1-0.3l0,0c0.4,0.2,0.5,0.6,0.3,1
		C29,58.6,28.5,58.8,28.2,58.6z"/>
	<path id="XMLID_9_" class="st0" d="M54.3,72.4L30.7,59.9c-0.4-0.2-0.5-0.6-0.3-1s0.6-0.5,1-0.3L55,71.1c0.4,0.2,0.5,0.6,0.3,1
		C55.1,72.4,54.6,72.6,54.3,72.4z"/>
	<path id="XMLID_8_" class="st0" d="M49.4,53.1L35,45.5c-0.4-0.2-0.5-0.6-0.3-1c0.2-0.4,0.6-0.5,1-0.3l14.4,7.6
		c0.4,0.2,0.5,0.6,0.3,1C50.2,53.1,49.8,53.3,49.4,53.1z"/>
	<path id="XMLID_30_" class="st0" d="M32.3,50.7c-0.4-0.2-0.5-0.6-0.3-1c0.2-0.4,0.6-0.5,1-0.3l0,0c0.4,0.2,0.5,0.6,0.3,1
		C33.1,50.8,32.7,50.9,32.3,50.7z"/>
</g>
<path id="XMLID_63_" class="st0" d="M118.8,63l-20-36.3c-0.2-0.4-0.6-0.5-1-0.3L33,62.1c-0.4,0.2-0.5,0.6-0.3,1l20,36.3
	c0.2,0.4,0.6,0.5,1,0.3L118.5,64C118.9,63.8,119,63.3,118.8,63z M53.6,98L34.3,63l63.5-35l19.3,35L53.6,98z"/>
<path id="XMLID_58_" class="st1" d="M97.9,28L34.3,63l19.3,35l63.5-35L97.9,28z M61.3,73.5l-10.4,5.7c-0.4,0.2-0.8,0.1-1-0.3
	c-0.2-0.4-0.1-0.8,0.3-1l10.4-5.7c0.4-0.2,0.8-0.1,1,0.3C61.7,72.9,61.6,73.3,61.3,73.5z M81.8,74c-6.1,3.3-13.7,1.1-17.1-4.9
	C61.4,63,63.6,55.4,69.7,52c6.1-3.4,13.7-1.1,17.1,4.9C90.1,63,87.9,70.7,81.8,74z M102.7,50.7l-10.4,5.7c-0.4,0.2-0.8,0.1-1-0.3
	c-0.2-0.4-0.1-0.8,0.3-1l10.4-5.7c0.4-0.2,0.8-0.1,1,0.3C103.2,50,103.1,50.5,102.7,50.7z"/>
<path id="XMLID_57_" class="st0" d="M86.8,57c-3.3-6.1-11-8.3-17.1-4.9c-6.1,3.4-8.3,11-4.9,17.1c3.4,6.1,11,8.3,17.1,4.9
	C87.9,70.7,90.1,63,86.8,57z M81.1,72.7c-5.4,2.9-12.1,1-15.1-4.4c-3-5.4-1-12.1,4.4-15.1c5.4-3,12.1-1,15.1,4.4
	C88.4,63,86.5,69.8,81.1,72.7z"/>
<path id="XMLID_32_" class="st2" d="M81.1,72.8c-5.4,3-12.1,1-15.1-4.4c-3-5.4-1-12.1,4.4-15.1c5.4-3,12.1-1,15.1,4.4
	C88.4,63,86.5,69.8,81.1,72.8z"/>
<path id="XMLID_20_" class="st2" d="M70.7,61.6c-0.7,0.4-1.6,0.1-2-0.6c-0.4-0.7-0.1-1.6,0.6-2c0.7-0.4,1.6-0.1,2,0.6
	C71.7,60.3,71.4,61.2,70.7,61.6z"/>
<path id="XMLID_41_" class="st0" d="M61.3,73.5l-10.4,5.7c-0.4,0.2-0.8,0.1-1-0.3c-0.2-0.4-0.1-0.8,0.3-1l10.4-5.7
	c0.4-0.2,0.8-0.1,1,0.3C61.7,72.9,61.6,73.3,61.3,73.5z"/>
<path id="XMLID_39_" class="st0" d="M102.7,50.7l-10.4,5.7c-0.4,0.2-0.8,0.1-1-0.3c-0.2-0.4-0.1-0.8,0.3-1l10.4-5.7
	c0.4-0.2,0.8-0.1,1,0.3C103.2,50,103.1,50.5,102.7,50.7z"/>
<ellipse id="XMLID_1_" class="st3" cx="63.6" cy="103.9" rx="30.1" ry="0.9"/>
<path id="XMLID_27_" class="st0" d="M69.6,61.3l4.1,2.3l0-9.1l12.2,7.1L69.4,71L69.6,61.3z M71,68.3l2.7-1.5l0-1.5l-2.6-1.4L71,68.3
	z M75.2,65.9l7.5-4.3l-7.5-4.4L75.2,65.9z"/>
<path id="XMLID_3_" class="st0" d="M26,31.9l0.1,1.7l2.9-1.8l0.1,5.2l-6.2-3.4L26,31.9z M24.1,33.7l1,0.5l0.5-0.3l0-1.1L24.1,33.7z
	 M25.6,34.6l2.8,1.6l-0.1-3.3L25.6,34.6z"/>
</svg>
