<?xml version="1.0" encoding="utf-8"?>
<!-- Generator: Adobe Illustrator 19.0.0, SVG Export Plug-In . SVG Version: 6.00 Build 0)  -->
<svg version="1.1" id="letterhead" xmlns="http://www.w3.org/2000/svg" xmlns:xlink="http://www.w3.org/1999/xlink" x="0px" y="0px"
	 viewBox="0 0 120 120" style="enable-background:new 0 0 120 120;" xml:space="preserve">
<style type="text/css">
	.st0{fill:#FFFFFF;}
	.st1{fill:#789DCF;}
	.st2{fill:#EBF6F3;}
</style>
<path id="XMLID_165_" class="st0" d="M46.5,86.4c0.1,0.2,0.3,0.4,0.5,0.5l7,3.5c0.1,0.1,0.3,0.1,0.5,0.1H88v16.3
	c0,1.3-1.1,2.4-2.4,2.4H19.7c-1.3,0-2.4-1.1-2.4-2.4V14.9c0-2.3,1.9-4.2,4.2-4.2h49.3v12.8c0,2.5,2,4.5,4.5,4.5H88v53.4H54.4
	c-0.2,0-0.3,0-0.5,0.1L47,85.1C46.5,85.3,46.3,85.9,46.5,86.4z"/>
<rect id="XMLID_86_" x="27.3" y="39.9" class="st1" width="48.9" height="2.1"/>
<rect id="XMLID_25_" x="27.3" y="53.8" class="st1" width="48.9" height="2.1"/>
<rect id="XMLID_17_" x="27.3" y="67.6" class="st1" width="48.9" height="2.1"/>
<path id="XMLID_167_" class="st1" d="M116.8,81.5H90.1V27.1l0-0.1V27c0-0.1,0-0.2,0-0.3l0-0.1c0-0.1-0.1-0.2-0.2-0.3L72.5,9
	c-0.1-0.1-0.2-0.2-0.3-0.2l-0.1,0c-0.1,0-0.1,0-0.2,0h-0.1l0,0H21.4c-3.4,0-6.2,2.8-6.2,6.2v91.9c0,2.5,2,4.5,4.5,4.5h65.9
	c2.5,0,4.5-2,4.5-4.5V90.5h26.7c0.6,0,1-0.5,1-1v-7C117.8,82,117.3,81.5,116.8,81.5z M72.7,12.2L86.5,26H75.2
	c-1.3,0-2.4-1.1-2.4-2.4V12.2z M88,106.8c0,1.3-1.1,2.4-2.4,2.4H19.7c-1.3,0-2.4-1.1-2.4-2.4V14.9c0-2.3,1.9-4.2,4.2-4.2h49.3v12.8
	c0,2.5,2,4.5,4.5,4.5H88v53.4H54.4c-0.2,0-0.3,0-0.5,0.1L47,85.1c-0.5,0.3-0.7,0.9-0.5,1.4c0.1,0.2,0.3,0.4,0.5,0.5l7,3.5
	c0.1,0.1,0.3,0.1,0.5,0.1H88V106.8z M98.4,88.4H54.6L49.8,86l4.9-2.4h43.8V88.4z M115.7,88.4h-15.3v-4.9h15.3V88.4z"/>
<rect id="XMLID_169_" x="100.5" y="83.6" class="st2" width="15.3" height="4.9"/>
<path id="XMLID_168_" class="st2" d="M86.5,26H75.2c-1.3,0-2.4-1.1-2.4-2.4V12.2L86.5,26z"/>
<polygon id="XMLID_166_" class="st0" points="98.4,83.6 98.4,88.4 54.6,88.4 49.8,86 54.6,83.6 "/>
<rect id="XMLID_16_" x="27.3" y="91.9" class="st1" width="12.5" height="2.1"/>
<rect id="XMLID_15_" x="27.3" y="98.8" class="st1" width="19.4" height="2.1"/>
<path id="XMLID_7_" class="st1" d="M39,18.3l-4.5,7.9l-2.4-4l-5,8.3H46L39,18.3z M32.9,28.9h-3.1l2.3-3.8l1.5,2.5L32.9,28.9z
	 M39,21.3l4.3,7.6l-8.7,0L39,21.3z"/>
<polygon id="XMLID_97_" class="st2" points="33.7,27.7 32.9,28.9 29.9,28.9 32.1,25.1 "/>
<polygon id="XMLID_170_" class="st2" points="43.4,29 34.7,28.9 39,21.3 "/>
</svg>
