<svg xmlns="http://www.w3.org/2000/svg" viewBox="0 0 422.58973 91.658041" height="97.769" width="450.762"><defs><linearGradient gradientUnits="userSpaceOnUse" gradientTransform="scale(1.75975 .56826)" x1="66.881" y1="-2.918" x2="79.832" y2="145.475" id="a"><stop stop-color="#222357" offset="0%"/><stop stop-color="#254AA5" offset="100%"/></linearGradient><radialGradient gradientUnits="userSpaceOnUse" cx="42.519" cy="44.472" fx="42.519" fy="44.472" r="303.411" id="b"><stop stop-color="#88CDE7" offset="0%"/><stop stop-color="#2274AD" offset="100%"/></radialGradient></defs><path d="M132.397 56.24c-.146-11.516 10.263-17.942 18.104-21.763 8.056-3.92 10.762-6.434 10.73-9.94-.06-5.365-6.426-7.733-12.383-7.825-10.393-.161-16.436 2.806-21.24 5.05l-3.744-17.519c4.82-2.221 13.745-4.158 23-4.243 21.725 0 35.938 10.724 36.015 27.351.085 21.102-29.188 22.27-28.988 31.702.069 2.86 2.798 5.912 8.778 6.688 2.96.392 11.131.692 20.395-3.574l3.636 16.95c-4.982 1.814-11.385 3.551-19.357 3.551-20.448 0-34.83-10.87-34.946-26.428m89.241 24.968c-3.967 0-7.31-2.314-8.802-5.865L181.803 1.245h21.709l4.32 11.939h26.528l2.506-11.939H256l-16.697 79.963h-17.665m3.037-21.601l6.265-30.027h-17.158l10.893 30.027m-118.599 21.6L88.964 1.246h20.687l17.104 79.963h-20.679m-30.603 0L53.941 26.782l-8.71 46.277c-1.022 5.166-5.058 8.149-9.54 8.149H.493L0 78.886c7.226-1.568 15.436-4.097 20.41-6.803 3.044-1.653 3.912-3.098 4.912-7.026L41.819 1.245H63.68l33.516 79.963H75.473" transform="matrix(.47665 0 0 -.47665 3.543 65.531)" fill="url(#a)"/><path d="M189.146 84.103v-5.104c0-1.956-1.191-3.232-3.232-3.232-1.02 0-2.127.34-2.892 1.446-.595-.935-1.446-1.446-2.722-1.446-.85 0-1.7.256-2.381 1.191v-1.02h-1.786v8.165h1.786v-4.508c0-1.446.765-2.127 1.956-2.127 1.19 0 1.786.766 1.786 2.127v4.508h1.786v-4.508c0-1.446.85-2.127 1.956-2.127 1.191 0 1.787.766 1.787 2.127v4.508h1.956zm26.451-8.165h-2.892V73.47h-1.786v2.467h-1.616v1.616h1.616v3.742c0 1.871.766 2.977 2.807 2.977.765 0 1.616-.255 2.211-.596l-.51-1.53c-.51.34-1.106.425-1.531.425-.85 0-1.19-.51-1.19-1.361v-3.657h2.891v-1.616zm15.14-.17c-1.021 0-1.702.51-2.127 1.19v-1.02h-1.786v8.165h1.786V79.51c0-1.361.595-2.127 1.701-2.127.34 0 .766.085 1.106.17l.51-1.7c-.34-.086-.85-.086-1.19-.086zm-22.88.85c-.85-.595-2.041-.85-3.317-.85-2.041 0-3.402 1.02-3.402 2.636 0 1.36 1.02 2.126 2.807 2.382l.85.085c.936.17 1.446.425 1.446.85 0 .595-.68 1.02-1.87 1.02a4.695 4.695 0 0 1-2.723-.85l-.85 1.361c.935.68 2.211 1.02 3.487 1.02 2.382 0 3.742-1.105 3.742-2.636 0-1.446-1.105-2.211-2.806-2.466l-.85-.086c-.766-.085-1.362-.255-1.362-.765 0-.595.596-.936 1.531-.936 1.02 0 2.041.426 2.552.68l.765-1.445zm47.46-.85c-1.021 0-1.702.51-2.127 1.19v-1.02h-1.786v8.165h1.786V79.51c0-1.361.596-2.127 1.701-2.127.34 0 .766.085 1.106.17l.51-1.7c-.34-.086-.85-.086-1.19-.086zm-22.795 4.252c0 2.467 1.701 4.253 4.338 4.253 1.19 0 2.041-.255 2.892-.936l-.85-1.446c-.681.51-1.361.766-2.127.766-1.446 0-2.466-1.02-2.466-2.637 0-1.53 1.02-2.552 2.466-2.637.766 0 1.446.256 2.126.766l.85-1.446c-.85-.68-1.7-.936-2.89-.936-2.638 0-4.339 1.787-4.339 4.253zm16.5 0v-4.082h-1.786v1.02c-.595-.765-1.445-1.19-2.551-1.19-2.296 0-4.083 1.786-4.083 4.252 0 2.467 1.787 4.253 4.083 4.253 1.19 0 2.041-.426 2.551-1.191v1.02h1.787V80.02zm-6.548 0c0-1.446.935-2.637 2.466-2.637 1.446 0 2.467 1.106 2.467 2.637 0 1.446-1.021 2.637-2.467 2.637-1.53-.085-2.466-1.191-2.466-2.637zm-21.349-4.253c-2.381 0-4.082 1.701-4.082 4.253s1.701 4.253 4.167 4.253c1.191 0 2.382-.34 3.318-1.106l-.851-1.276c-.68.51-1.53.85-2.381.85-1.106 0-2.212-.51-2.467-1.955h6.039v-.68c.085-2.638-1.446-4.339-3.743-4.339zm0 1.531c1.106 0 1.872.68 2.042 1.957h-4.253c.17-1.106.936-1.957 2.211-1.957zm44.313 2.722v-7.314h-1.786v4.252c-.596-.765-1.446-1.19-2.552-1.19-2.296 0-4.082 1.786-4.082 4.252 0 2.467 1.786 4.253 4.082 4.253 1.19 0 2.041-.426 2.552-1.191v1.02h1.786V80.02zm-6.55 0c0-1.446.936-2.637 2.467-2.637 1.446 0 2.467 1.106 2.467 2.637 0 1.446-1.02 2.637-2.467 2.637-1.53-.085-2.466-1.191-2.466-2.637zm-59.706 0v-4.082h-1.786v1.02c-.596-.765-1.446-1.19-2.552-1.19-2.296 0-4.082 1.786-4.082 4.252 0 2.467 1.786 4.253 4.082 4.253 1.191 0 2.042-.426 2.552-1.191v1.02h1.786V80.02zm-6.634 0c0-1.446.935-2.637 2.466-2.637 1.446 0 2.467 1.106 2.467 2.637 0 1.446-1.02 2.637-2.467 2.637-1.53-.085-2.466-1.191-2.466-2.637z"/><path fill="#ff5f00" d="M207.262 13.934h26.791v48.14h-26.791z"/><path d="M208.963 38.004c0-9.78 4.593-18.456 11.652-24.07-5.188-4.082-11.737-6.549-18.882-6.549-16.925 0-30.618 13.694-30.618 30.62 0 16.925 13.693 30.618 30.618 30.618 7.145 0 13.694-2.466 18.882-6.549-7.06-5.528-11.652-14.289-11.652-24.07z" fill="#eb001b"/><path d="M270.2 38.004c0 16.926-13.693 30.62-30.618 30.62-7.145 0-13.694-2.467-18.882-6.55 7.145-5.613 11.652-14.289 11.652-24.07 0-9.78-4.592-18.456-11.652-24.07 5.188-4.082 11.737-6.549 18.882-6.549 16.925 0 30.619 13.779 30.619 30.62z" fill="#f79e1b"/><g fill="none" fill-rule="evenodd"><path d="M0 256h256V0H0z" mask="url(#c)" fill="url(#b)" transform="matrix(.33036 0 0 .33036 334.475 3.543)"/><path d="M342.052 40.2l-1.618-3.93-1.609 3.93h3.227zm35.61-1.56c-.319.181-.703.201-1.167.201h-2.87v-2.194h2.908c.416 0 .847.015 1.127.168.302.15.493.456.493.876 0 .435-.186.774-.49.949zm20.465 1.56l-1.628-3.93-1.618 3.93h3.246zm-38.147 4.26h-2.421l-.014-7.727-3.421 7.728h-2.073l-3.44-7.745v7.745h-4.804l-.904-2.203h-4.92l-.912 2.203h-2.568l4.224-9.88h3.514l4.016 9.36v-9.36h3.86l3.087 6.708 2.842-6.708h3.934v9.88zm9.647 0h-7.89v-9.88h7.889v2.067h-5.522v1.773h5.387v2.031l-5.387-.008v1.973h5.522v2.045zm11.127-7.21c0 1.562-1.05 2.387-1.659 2.63.516.2.954.54 1.16.836.333.481.4.932.4 1.801v1.944h-2.384l-.007-1.242c0-.588.056-1.444-.383-1.917-.345-.354-.865-.427-1.718-.427h-2.538v3.586h-2.36v-9.88h5.437c1.2 0 2.093.04 2.86.479.747.436 1.192 1.083 1.192 2.19zm1.374 7.21h2.41v-9.88h-2.41v9.88zm30.366 0h-3.35l-4.479-7.408.009 7.409h-4.811l-.922-2.203h-4.912l-.883 2.203h-2.765c-1.152 0-2.608-.256-3.424-1.089-.84-.844-1.263-1.974-1.263-3.776 0-1.465.257-2.803 1.271-3.86.765-.789 1.958-1.155 3.588-1.155h2.283v2.115h-2.233c-.863 0-1.354.132-1.825.59-.397.417-.679 1.203-.679 2.241 0 1.06.212 1.815.657 2.321.354.387 1.018.504 1.642.504h1.062l3.328-7.771h3.538l4.001 9.346V34.58h3.602l4.15 6.88v-6.88h2.415v9.88zm-78.019 1.947h4.037l.91-2.202h2.036l.907 2.202h7.943v-1.681l.71 1.687h4.117l.707-1.709v1.703h19.738l-.01-3.604h.382c.269.006.349.037.349.48v3.124h10.201v-.838c.824.442 2.107.838 3.786.838h4.297l.917-2.202h2.04l.908 2.202h8.267V44.32l1.255 2.088h6.621V32.623h-6.555v1.632l-.915-1.632h-6.738v1.632l-.843-1.632h-9.095c-1.524 0-2.866.21-3.944.804v-.804h-6.27v.804c-.696-.611-1.633-.804-2.671-.804h-22.93l-1.546 3.565-1.572-3.565h-7.22v1.632l-.802-1.632h-6.158l-2.859 6.548v7.236zm84.144 7.291h-4.313c-.43 0-.715.017-.946.176-.248.158-.353.405-.353.718 0 .367.212.62.526.73.237.087.511.11.914.116l1.265.032c1.29.037 2.159.256 2.687.793.089.079.152.173.22.25v-2.815zm0 6.517c-.58.842-1.697 1.266-3.213 1.266h-4.563v-2.124h4.549c.444 0 .762-.06.958-.245a.866.866 0 0 0 .28-.64c0-.292-.121-.523-.286-.656-.184-.156-.428-.22-.836-.225-2.217-.069-4.985.07-4.985-3.056 0-1.433.914-2.94 3.385-2.94h4.71v-1.967h-4.375c-1.321 0-2.277.312-2.96.811v-.811h-6.47c-1.023 0-2.236.257-2.819.811l.009-.811h-11.551v.811c-.92-.663-2.466-.811-3.191-.811h-7.607v.811c-.731-.707-2.34-.811-3.33-.811h-8.527l-1.947 2.118-1.827-2.118h-12.737V63.42h12.499l2.01-2.143 1.895 2.144 7.693.005v-3.244h.762c1.015.015 2.23-.022 3.291-.481v3.72h6.351v-3.596h.306c.391 0 .43.022.43.41v3.186h19.299c1.217 0 2.495-.314 3.211-.878v.878h6.122c1.275 0 2.513-.177 3.464-.631v-2.575zm-9.427-3.952c.462.479.707 1.083.707 2.095 0 2.133-1.33 3.123-3.708 3.123h-4.607v-2.124h4.586c.453 0 .767-.06.973-.245a.869.869 0 0 0 .272-.64.839.839 0 0 0-.289-.656c-.182-.156-.428-.22-.838-.225-2.215-.069-4.974.07-4.974-3.056 0-1.433.9-2.94 3.367-2.94h4.742v2.103h-4.327c-.435 0-.718.017-.954.176-.257.158-.352.405-.352.718 0 .367.22.62.52.73.241.087.503.11.91.116l1.274.032c1.29.037 2.162.256 2.698.793zm-21.316-.606c-.31.182-.706.2-1.161.2h-2.872v-2.214h2.91c.417 0 .845.009 1.123.17.307.167.49.471.49.898 0 .418-.183.759-.49.946zm1.428 1.23c.525.19.954.54 1.156.828.333.485.387.935.39 1.804v1.962h-2.366v-1.235c0-.6.058-1.478-.384-1.934-.341-.363-.87-.443-1.729-.443h-2.528v3.612h-2.37v-9.887h5.45c1.199 0 2.07.05 2.844.468.745.446 1.207 1.073 1.207 2.198 0 1.57-1.048 2.376-1.67 2.627zm2.984-5.293h7.887v2.05h-5.533v1.788h5.395v2.018h-5.395v1.965l5.533.011v2.055h-7.887v-9.887zm-15.932 4.559h-3.06v-2.51h3.085c.853 0 1.443.34 1.443 1.211 0 .853-.562 1.299-1.468 1.299zm-5.411 4.43l-3.62-4.026 3.62-3.901v7.928zm-9.363-1.168h-5.807V57.45h5.185v-2.018h-5.185v-1.789h5.92l2.58 2.875-2.693 2.897zm18.776-4.56c0 2.736-2.043 3.308-4.113 3.308h-2.948v3.318h-4.584l-2.91-3.27-3.023 3.27h-9.353v-9.887h9.498l2.906 3.238 3.003-3.238h7.547c1.877 0 3.977.517 3.977 3.26z" fill="#fff"/><path d="M380.754 37.251c0 1.564-1.049 2.386-1.656 2.63.515.198.954.542 1.16.835.333.484.398.932.398 1.804v1.94h-2.382l-.01-1.24c0-.589.06-1.445-.381-1.918-.347-.354-.864-.427-1.72-.427h-2.535v3.586h-2.363v-9.88h5.44c1.197 0 2.091.04 2.856.479.751.436 1.193 1.083 1.193 2.191" fill="#2f9bca"/><path d="M369.63 44.46h-7.894v-9.88h7.893v2.067h-5.525v1.773h5.387v2.031l-5.387-.005v1.973h5.525" fill="#2ea3d0"/><path d="M359.98 44.46h-2.421l-.014-7.727-3.418 7.728h-2.073l-3.443-7.742v7.742h-4.802l-.906-2.201h-4.92l-.91 2.2h-2.568l4.223-9.88h3.513l4.016 9.363v-9.364h3.861l3.09 6.713 2.838-6.713h3.934" fill="#55b2d8"/><path d="M377.666 38.64c-.322.184-.706.201-1.166.201h-2.872v-2.194h2.908c.416 0 .845.015 1.124.17.304.148.494.454.494.875 0 .434-.184.776-.488.948m-35.612 1.56l-1.62-3.93-1.609 3.93" fill="#fff"/></g></svg>